<?xml version="1.0" encoding="utf-8"?>
<!-- Generator: Adobe Illustrator 16.0.4, SVG Export Plug-In . SVG Version: 6.00 Build 0)  -->
<!DOCTYPE svg PUBLIC "-//W3C//DTD SVG 1.1//EN" "http://www.w3.org/Graphics/SVG/1.1/DTD/svg11.dtd">
<svg version="1.1" id="Lager_1" xmlns="http://www.w3.org/2000/svg" xmlns:xlink="http://www.w3.org/1999/xlink" x="0px" y="0px"
	 width="248px" height="198.628px" viewBox="0 0 248 198.628" enable-background="new 0 0 248 198.628" xml:space="preserve">
<g>
	<g>
		<defs>
			<rect id="SVGID_1_" x="0" width="248" height="198.628"/>
		</defs>
		<clipPath id="SVGID_2_">
			<use xlink:href="#SVGID_1_"  overflow="visible"/>
		</clipPath>
		<path clip-path="url(#SVGID_2_)" fill="#FFFFFF" d="M123.119,92.249c-20.784-0.45-37.328-17.729-36.881-38.519
			c0.22-10.07,4.347-19.453,11.623-26.419c7.276-6.965,16.829-10.682,26.896-10.463c20.79,0.448,37.332,17.73,36.882,38.519
			c-0.218,10.069-4.343,19.453-11.622,26.419C142.742,88.749,133.19,92.471,123.119,92.249L123.119,92.249z M96.015,25.385
			c-7.79,7.459-12.208,17.503-12.442,28.287c-0.481,22.258,17.234,40.762,39.49,41.244c10.784,0.235,21.012-3.746,28.801-11.202
			c7.79-7.461,12.208-17.508,12.44-28.291c0.479-22.258-17.234-40.762-39.494-41.241C114.032,13.947,103.808,17.926,96.015,25.385
			L96.015,25.385z"/>
		<path clip-path="url(#SVGID_2_)" fill="#FFFFFF" d="M122.806,106.877c-28.853-0.624-51.819-24.607-51.193-53.465
			c0.303-13.975,6.031-26.998,16.128-36.665C97.837,7.077,111.1,1.917,125.074,2.22c13.976,0.303,26.997,6.031,36.671,16.129
			c9.666,10.096,14.823,23.354,14.521,37.331l0,0C175.639,84.535,151.657,107.503,122.806,106.877L122.806,106.877z M86.215,15.15
			C75.69,25.229,69.723,38.799,69.405,53.365c-0.652,30.075,23.28,55.069,53.35,55.721c30.074,0.652,55.067-23.287,55.718-53.358
			l0,0c0.319-14.564-5.062-28.383-15.133-38.905C153.258,6.299,139.688,0.33,125.119,0.013C110.556-0.303,96.737,5.071,86.215,15.15
			L86.215,15.15z"/>
	</g>
	<path fill="#FFFFFF" d="M94.273,60.844c-0.487-0.389-0.682-1.126-0.487-1.831c0.23-0.821,0.915-1.384,1.83-1.507
		c1.168-0.159,2.134,0.184,2.791,0.99c1.099,1.344,1.194,3.76,0.254,6.46c-1.711,4.915,0.114,7.543,0.977,8.445
		c0.689,0.72,1.518,1.122,2.005,0.973l0.061-0.017l0.008-0.062c0.046-0.305,0.414-1.077,0.651-1.522l0.032-0.056l-0.042-0.051
		c-1.446-1.849-1.854-4.263-1.035-6.157c0.698-1.608,2.143-2.588,4.063-2.76c0.914-0.083,1.275,0.2,1.306,0.466
		c0.037,0.299-0.303,0.664-0.931,0.756c-2.048,0.295-2.898,1.711-3.014,2.936c-0.1,1.098,0.343,2.068,1.062,2.312
		c0.389,0.008,0.693-0.116,0.936-0.36l0.034-0.031l-0.006-0.044c-0.041-0.533,0.2-1.166,0.561-1.47
		c0.225-0.19,0.481-0.254,0.758-0.183c1.126,0.283,1.207,1.148,1.189,1.508c-0.041,0.826-0.634,1.582-1.323,1.687l-0.057,0.007
		l-0.451,1.281c-0.509,1.394-1.086,2.975-0.909,3.904c0.114,0.618,0.396,1.025,0.795,1.149c0.35,0.11,0.745-0.025,1.089-0.369
		c0.465-0.461,0.706-1.462,0.983-2.623l0.115-0.478l-0.005-0.021c-0.189-0.821-0.05-1.545,0.364-1.892
		c0.292-0.246,0.687-0.272,1.146-0.078c0.302,0.129,0.517,0.396,0.604,0.755c0.139,0.572-0.065,1.28-0.53,1.846l-0.02,0.023
		l-0.001,0.03c-0.049,0.523-0.17,1.081-0.289,1.622c-0.172,0.778-0.333,1.514-0.26,2.104c0.052,0.392,0.283,0.672,0.662,0.791
		c0.493,0.157,1.132,0,1.452-0.355c0.342-0.376,0.657-1.963,0.979-3.696l0.229-1.153l-0.041-0.043
		c-0.356-0.316-0.467-0.989-0.26-1.602c0.208-0.622,0.68-1.007,1.293-1.057c0.502-0.039,0.854,0.129,1.048,0.5
		c0.371,0.712,0.058,1.908-0.254,2.286l-0.031,0.038l0.015,0.048c0.278,1.056,0.146,2.209,0.04,3.139
		c-0.085,0.765-0.159,1.427,0.013,1.832c0.182,0.423,0.611,0.731,1.149,0.821c0.559,0.095,1.107-0.069,1.434-0.429
		c0.369-0.411,0.293-1.047,0.21-1.787c-0.076-0.65-0.158-1.391,0.005-2.186l0.005-0.03l-0.013-0.026
		c-0.311-0.76-0.295-1.51,0.041-2.055c0.213-0.342,0.528-0.554,0.869-0.58c0.548-0.045,0.93,0.062,1.134,0.313
		c0.42,0.513,0.111,1.571-0.136,2.417l-0.025,0.084c0.088,1.196,0.295,2.852,0.787,4.146c0.153,0.414,0.581,0.702,1.066,0.712
		c0.506,0.013,0.929-0.27,1.136-0.755c0.182-0.43-0.01-1.313-0.211-2.249c-0.112-0.505-0.223-1.028-0.274-1.476
		c-0.424-0.998-0.506-1.702-0.252-2.123c0.151-0.253,0.424-0.397,0.813-0.428c0.232-0.021,0.683,0,1.031,0.346
		c0.384,0.376,0.545,1.022,0.49,1.922c0,0.033,0.364,1.327,0.364,1.327c0.272,1,0.55,2.035,0.904,2.787
		c0.111,0.419,0.451,0.715,0.85,0.733c0.409,0.021,0.767-0.244,0.935-0.687c0.287-0.801-0.138-1.706-0.677-2.855l-0.269-0.568
		c-0.556-0.548-0.748-1.071-0.581-1.541c0.182-0.505,0.754-0.849,1.197-0.885c0.414-0.032,0.99,0.01,1.368,0.403
		c0.349,0.369,0.476,0.99,0.375,1.842l-0.006,0.02l0.521,1.668c0.19,0.651,0.357,1.214,0.524,1.616
		c0.172,0.401,0.525,0.674,0.984,0.75c0.444,0.076,0.879-0.056,1.144-0.344c0.342-0.374,0.089-0.891-0.193-1.487
		c-0.177-0.37-0.378-0.788-0.47-1.23l-0.004-0.03l-0.026-0.019c-0.57-0.557-0.813-1.267-0.616-1.812
		c0.136-0.376,0.454-0.601,0.909-0.638c0.57-0.044,1,0.072,1.277,0.345c0.298,0.295,0.43,0.779,0.389,1.438l-0.005,0.024
		l0.012,0.022c0.15,0.333,0.241,0.702,0.333,1.094c0.13,0.544,0.267,1.109,0.585,1.629c0.288,0.47,0.677,0.712,1.086,0.68
		c0.475-0.036,0.914-0.415,1.156-0.988c0.167-0.414-0.116-1.073-0.424-1.771c-0.309-0.713-0.632-1.451-0.404-1.825
		c0.096-0.159,0.288-0.249,0.591-0.274c1.318-0.104,1.874,1.089,2.313,2.049c0.193,0.409,0.355,0.764,0.556,0.957
		c0.248,0.237,0.495,0.351,0.742,0.344c0.36-0.013,0.642-0.278,0.818-0.478c0.268-0.293,0.111-0.775-0.04-1.245
		c-0.207-0.646-0.308-1.083,0.111-1.278c1.061-0.485,1.46-0.01,1.924,0.537c0.334,0.393,0.677,0.802,1.288,0.812
		c2.885,0.045,5.208-2.122,6.659-3.947c2.488-3.149,3.792-7.077,3.397-8.632l-0.01-0.038l-0.035-0.021
		c-1.07-0.636-1.318-1.803-1.086-2.677c0.207-0.786,0.763-1.301,1.414-1.313c1.021-0.018,1.772,0.336,2.242,1.054
		c0.391,0.592,0.576,1.426,0.576,2.456c0,2.195-0.858,5.278-2.495,8.824c-4.122,8.905-14.328,13.064-18.537,13.822
		c-20.358,3.432-36.045-4.026-38.965-13.582c-1.237-4.054-0.689-6.094,0.093-8.218c0.431-1.164,0.876-2.372,1.035-3.973l0.016-0.182
		l-0.162,0.086C95.653,61.246,94.822,61.286,94.273,60.844L94.273,60.844z"/>
	<path fill="#FFFFFF" d="M138.47,32.402c-1.233,0.04-2.819,0.192-3.081,0.806c-0.475,1.117-0.138,5.465,0.792,6.01
		c1.076,0.629,3.637,0.6,4.364-0.104c0.565-0.545,0.894-3.695,0.894-5.235c0-0.421-0.035-0.75-0.121-0.909
		C141.105,32.549,139.636,32.366,138.47,32.402L138.47,32.402z M128.119,33.208c-0.723,0.088-1.358,0.598-1.424,1.141
		c-0.08,0.702-0.299,0.976-0.667,1.238l-0.188,0.131l0.223,0.044c1.931,0.374,2.333,1.875,2.637,2.971
		c0.157,0.583,0.282,1.23,0.601,1.354c0.754,0.288,2.137,0.307,3.001-0.023c0.394-0.149,0.591-1.001,0.525-1.566
		c-0.132-1.507-0.647-4.599-0.647-4.599c-0.165-0.644-0.914-0.855-1.362-0.872C130.428,33.016,129.649,33.036,128.119,33.208
		L128.119,33.208z M124.356,42.85c-0.066,3.007,0.818,7.617,1.764,7.728c1.009,0.119,1.029-2.849,1.056-4.003
		c0.06-3.008-0.501-7.703-1.612-7.727C124.614,38.83,124.381,41.458,124.356,42.85L124.356,42.85z M121.457,23.872
		c0.389-0.299,0.556-0.665,0.505-1.087c-0.146-1.119,0.409-2.447,1.552-2.646c1.443-0.249,4.09,0.08,4.575,0.4
		c0.667,0.437,0.944,0.959,0.789,1.472c-0.254,0.771-1.385,1.346-2.596,1.308c-0.77-0.025-1.349,0.223-1.723,0.732
		c-1.148,1.583,0.03,5.192,0.419,6.261c0.11,0.313,0.353,0.457,0.681,0.405c-0.01,0,2.844-0.276,2.844-0.276
		c2.391-0.248,5.359-0.56,7.829-0.606c-0.005,0,0.192-0.086,0.192-0.086l0.061-0.177c-0.051-0.56-0.384-2.008-0.525-2.311
		l-0.024-0.052l-0.057-0.006c-0.58-0.052-1.672-0.405-2.303-1.167c-0.379-0.45-0.536-0.985-0.48-1.586
		c0.162-1.032,1.637-1.609,2.904-1.546c1.495-0.024,2.677,0.408,3.157,1.154c0.379,0.587,0.343,1.364-0.102,2.303l-0.01,0.02v0.021
		c0.005,0.788,0.379,2.336,0.642,2.873c0.096,0.189,0.375,0.22,0.43,0.225l0.419,0.025c0.788,0.046,1.772,0.106,3.596,0.561
		c0.546,0.136,1.076,0.795,1.006,1.561c-0.243,2.604-0.672,4.104-1.262,6.183l-0.663,2.419c-0.025,0.096,0.01,0.26,0.132,0.306l0,0
		c1.729,0.621,3.722,1.674,3.668,2.591c-0.052,0.743-0.279,0.973-0.409,1.043c-0.107,0.057-0.229,0.055-0.335-0.005
		c-1.045-0.593-2.606-0.98-3.116-1.078c-0.085-0.017-0.232,0.073-0.258,0.162c-0.187,0.624,0.051,1.429,0.325,2.364
		c0.307,1.052,0.66,2.245,0.488,3.469c-0.182,1.337-0.697,2.921-1.076,4.075c-0.257,0.791-0.444,1.361-0.439,1.586
		c0.011,0.632,0.025,0.667,0.384,0.939c0.258,0.195,0.738,0.559,1.592,1.523c3.106,3.497,0.561,8.495-1.293,12.146
		c-0.652,1.272-1.208,2.374-1.43,3.207c-0.142,0.563-1.287,1.217-2.707,1.559c-1.404,0.334-2.571,0.252-2.98-0.21
		c-0.086-0.096-0.121-0.22-0.106-0.366c0.047-0.338,0.344-0.736,0.813-1.064c0.748-0.521,1.505-0.774,2.648-1.158
		c0.155-0.052,0.256-0.169,0.261-0.311c0.97-4.988,1.616-9.233,0.46-14.481l-0.268-0.811c-0.207-0.548-0.425-1.116-0.404-2.028
		c0.006-0.315,0.081-0.752,0.172-1.26c0.303-1.755,0.768-4.412-0.511-7.432c-0.317-0.486-0.903-0.675-1.53-0.509
		c-0.539,0.144-1.105,0.572-1.146,1.205l-0.025,0.364c-0.175,2.571-0.373,5.485-1.737,8.188c-0.763,1.513,0.021,2.119,0.783,2.706
		l0.047,0.034c2.741,2.122,2.286,6.843,0.412,10.41l-0.287,0.543c-0.384,0.7-0.813,1.493-1.178,2.505l-0.126,0.258
		c-0.616,0.917-2.025,1.588-3.778,1.804c-1.228,0.15-2.135,0.004-2.368-0.211c-0.101-0.112-0.142-0.264-0.116-0.439
		c0.061-0.449,0.521-0.975,0.944-1.265c0.616-0.417,1.454-0.89,3-1.245c0.025-0.005,0.274-0.069,0.35-0.346
		c1.817-5.245,0.196-10.086-0.582-11.508c-0.728-1.326-0.625-2.055-0.424-3.505l0.146-1.051c0.299-2.113,0.919-6.511,1.173-9.387
		c0.01-0.106-0.082-0.271-0.237-0.291c-0.502-0.058-1.724-0.154-2.203,0.235c-0.334,0.27-0.373,1.332-0.43,2.801
		c-0.115,2.889-0.268,6.845-2.718,7.248c-0.742,0.122-1.444-0.078-2.084-0.592c-1.562-1.249-2.708-4.393-2.916-8.007
		c-0.207-3.563,0.36-7.996,1.663-9.246l0.122-0.116l-0.162-0.048c-0.415-0.121-0.744-0.5-0.9-1.043
		c-0.182-0.649-0.06-1.361,0.308-1.769l0.025-0.029v-0.037c0-0.397-0.262-1.067-0.596-1.913c-0.374-0.937-0.829-2.104-1.041-3.215
		c-0.015-0.101-0.202-0.226-0.313-0.232l-0.776,0.001c-2.31,0.043-7.118,0.133-8.784-4.884c-0.121-0.369,0.151-0.845,0.596-1.041
		c0.511-0.226,1.025,0.015,1.376,0.643c0.438,0.782,1.662,1.955,2.649,2.354C117.107,24.808,120.201,24.839,121.457,23.872
		L121.457,23.872z"/>
	<polygon fill="#FFFFFF" points="107.085,8.226 106.823,10.307 105.476,11.916 107.555,12.181 109.164,13.526 109.431,11.446 
		110.773,9.838 108.694,9.572 107.085,8.226 	"/>
	<polygon fill="#FFFFFF" points="146.01,98.363 144.317,97.123 142.222,96.997 143.459,95.3 143.591,93.204 145.277,94.446 
		147.368,94.577 146.136,96.27 146.01,98.363 	"/>
	<polygon fill="#FFFFFF" points="101.715,98.285 103.408,97.052 105.504,96.931 104.274,95.229 104.151,93.133 102.458,94.373 
		100.363,94.492 101.596,96.188 101.715,98.285 	"/>
	<path fill="#FFFFFF" d="M90.132,89.284l2.134-2.504c0.972-1.138,2.52-1.057,4,0.204c1.487,1.27,1.821,2.793,0.848,3.932
		l-2.131,2.502c-0.261,0.309-0.273,0.48,0.076,0.778l-0.763,0.576l-2.054-1.755l0.454-0.836c0.35,0.298,0.519,0.26,0.779-0.045
		l2.144-2.513c0.426-0.499,0.384-1.109-0.28-1.675c-0.683-0.583-1.299-0.534-1.725-0.035l-2.142,2.513
		c-0.263,0.308-0.273,0.48,0.069,0.771l-0.755,0.581l-1.883-1.604l0.447-0.843C89.703,89.627,89.873,89.589,90.132,89.284
		L90.132,89.284z"/>
	<path fill="#FFFFFF" d="M83.278,80.945l4.513-3.382l0.848,1.131l-1.414,4.771c-0.099,0.331-0.354,0.854-0.354,0.854
		s0.407-0.376,0.611-0.529l1.989-1.49c0.312-0.235,0.375-0.398,0.1-0.767l0.864-0.403l1.359,1.814l-0.622,0.725
		c-0.275-0.369-0.457-0.361-0.77-0.129l-3.316,2.485c-0.319,0.243-0.37,0.408-0.092,0.775l-0.872,0.393l-1.22-1.628l1.277-4.337
		c0.106-0.34,0.372-0.869,0.372-0.869s-0.418,0.384-0.647,0.557l-1.695,1.271c-0.323,0.241-0.371,0.406-0.096,0.775l-0.861,0.402
		l-1.365-1.821l0.628-0.717C82.79,81.195,82.957,81.185,83.278,80.945L83.278,80.945z"/>
	<path fill="#FFFFFF" d="M85.013,72.297l1.174,2.372l-0.75,0.588c-0.202-0.412-0.383-0.438-0.732-0.265l-3.711,1.838
		c-0.362,0.178-0.44,0.331-0.236,0.744l-0.922,0.237l-1.174-2.37l0.749-0.59c0.204,0.413,0.372,0.446,0.733,0.267l3.714-1.839
		c0.35-0.172,0.438-0.333,0.233-0.744L85.013,72.297L85.013,72.297z"/>
	<path fill="#FFFFFF" d="M76.597,65.203l6.099,0.551l0.538,1.821l-4.833,3.742c-0.354,0.271-0.393,0.416-0.273,0.824l-0.954,0.066
		l-0.745-2.528l0.837-0.462c0.119,0.361,0.264,0.414,0.571,0.192l2.339-1.759c0.386-0.269,1.207-0.658,1.207-0.658
		s-0.905,0.101-1.381,0.073l-2.938-0.284c-0.394-0.027-0.475,0.141-0.366,0.517l-0.947,0.076l-0.667-2.25l0.838-0.452
		C76.046,65.09,76.153,65.166,76.597,65.203L76.597,65.203z"/>
	<path fill="#FFFFFF" d="M81.106,55.649l0.501,5.465l-0.913,0.29c-0.041-0.459-0.196-0.548-0.589-0.511l-4.123,0.375
		c-0.399,0.037-0.532,0.151-0.489,0.611l-0.947-0.121l-0.475-5.227l1.683-0.153l0.217,0.72c-0.544,0.13-0.658,0.291-0.584,1.082
		l0.11,1.213l1.708-0.156l-0.101-1.099c-0.043-0.47-0.139-0.634-0.505-0.603l0.115-0.771l1.683-0.154l0.267,0.738
		c-0.38,0.035-0.446,0.214-0.399,0.684l0.099,1.099l1.855-0.169l-0.153-1.682c-0.069-0.735-0.287-0.854-0.799-0.899l0.079-0.78
		L81.106,55.649L81.106,55.649z"/>
	<path fill="#FFFFFF" d="M75.498,48.996l-0.119,1.052l2.021,0.227l0.116-1.018c0.086-0.767-0.26-1.209-0.876-1.279
		C76.022,47.909,75.584,48.242,75.498,48.996L75.498,48.996z M81.869,46.062l-0.235,2.091c-1.111,0.919-2.844-0.028-3.005,1.401
		l-0.092,0.846l1.347,0.15c0.389,0.044,0.545-0.03,0.599-0.489l0.904,0.298l-0.291,2.606l-0.95,0.104
		c0.053-0.47-0.086-0.577-0.475-0.621l-4.117-0.46c-0.389-0.044-0.548,0.042-0.599,0.5l-0.903-0.311l0.399-3.566
		c0.192-1.728,1.014-2.666,2.33-2.518c0.86,0.096,1.401,0.619,1.635,1.537c0.337-0.853,1.174-0.979,1.675-1.027
		c0.587-0.05,0.793-0.144,0.855-0.682l0.017-0.159L81.869,46.062L81.869,46.062z"/>
	<path fill="#FFFFFF" d="M83.336,41.509c-0.426,1.325-1.165,2.151-1.533,2.502l-1.336-0.841l0.197-0.614
		c0.845,0.008,1.375-0.669,1.601-1.369c0.173-0.536,0.101-1.177-0.47-1.36c-0.491-0.158-0.831,0.144-1.383,1.186
		c-0.551,1.068-1.438,2.028-2.81,1.587c-1.333-0.431-1.706-1.868-1.217-3.391c0.374-1.161,0.986-1.967,1.328-2.316l1.264,0.806
		l-0.196,0.602c-0.737,0.077-1.177,0.685-1.351,1.231c-0.194,0.604-0.058,1.119,0.393,1.263c0.436,0.142,0.756-0.178,1.163-0.955
		c0.748-1.414,1.552-2.34,3.052-1.857C83.507,38.457,83.813,40.019,83.336,41.509L83.336,41.509z"/>
	<path fill="#FFFFFF" d="M86.479,33.891l-1.207,2.355l-0.92-0.253c0.209-0.409,0.126-0.569-0.221-0.747l-3.688-1.889
		c-0.358-0.185-0.526-0.157-0.737,0.253l-0.74-0.6l1.208-2.355l0.919,0.251c-0.21,0.409-0.134,0.565,0.222,0.75l3.688,1.889
		c0.347,0.179,0.528,0.154,0.736-0.255L86.479,33.891L86.479,33.891z"/>
	<path fill="#FFFFFF" d="M86.806,24.136c-0.439-0.222-0.706-0.246-1.146,0.356L85.25,25.05l3.561,2.611
		c0.318,0.232,0.493,0.245,0.765-0.125l0.634,0.708l-1.55,2.116l-0.874-0.385c0.28-0.38,0.212-0.542-0.1-0.774l-3.565-2.612
		l-0.409,0.557c-0.442,0.604-0.337,0.851,0.006,1.202l-0.572,0.523l-1.302-1.197l3.744-5.114l1.547,0.874L86.806,24.136
		L86.806,24.136z"/>
	<path fill="#FFFFFF" d="M91.45,19.598c-0.35-0.208-1.071-0.811-1.071-0.811s0.518,0.807,0.692,1.165l0.762,1.793l1.327-1.241
		L91.45,19.598L91.45,19.598z M97.5,20.752l-1.903,1.773l-0.778-0.548c0.252-0.235,0.275-0.398-0.094-0.59l-0.511-0.261
		l-1.853,1.727l0.22,0.536c0.164,0.398,0.354,0.347,0.622,0.096l0.495,0.816l-1.642,1.529l-0.778-0.547
		c0.303-0.283,0.35-0.437,0.174-0.841l-1.783-4.205c-0.114-0.258-0.282-0.336-0.611-0.03l-0.485-0.823l2.735-2.551l0.788,0.541
		c-0.336,0.314-0.293,0.462-0.026,0.593l4.092,2.079c0.378,0.2,0.533,0.182,0.841-0.108L97.5,20.752L97.5,20.752z"/>
	<path fill="#FFFFFF" d="M101.469,18.312c-1.185,0.732-2.28,0.886-2.791,0.917l-0.472-1.507l0.545-0.339
		c0.642,0.551,1.482,0.379,2.109-0.007c0.477-0.298,0.838-0.831,0.522-1.338c-0.271-0.442-0.727-0.43-1.823,0.005
		c-1.11,0.458-2.409,0.614-3.167-0.608c-0.737-1.192-0.091-2.528,1.269-3.372c1.036-0.642,2.022-0.861,2.509-0.907l0.443,1.433
		l-0.538,0.333c-0.612-0.421-1.34-0.24-1.83,0.064c-0.538,0.333-0.766,0.813-0.519,1.214c0.241,0.392,0.695,0.356,1.507,0.028
		c1.484-0.596,2.696-0.779,3.527,0.561C103.575,16.099,102.797,17.486,101.469,18.312L101.469,18.312z"/>
	<path fill="#FFFFFF" d="M121.386,8.933c-0.48,0.064-0.561,0.228-0.514,0.603l0.076,0.547c0.049,0.365,0.141,0.445,0.382,0.414
		l-0.065,0.901c-1.005,0.206-1.178,0.646-2.719,0.854c-2.063,0.281-3.944-0.488-4.298-3.111c-0.323-2.407,1.077-3.836,3.321-4.141
		c1.344-0.18,2.388,0.214,2.83,0.398l-0.188,1.626l-0.616,0.083c-0.304-0.712-0.962-0.927-1.689-0.829
		c-1.287,0.174-1.874,0.995-1.659,2.604c0.221,1.619,0.907,2.245,2.174,2.076c0.306-0.042,0.682-0.186,0.884-0.328l-0.119-0.866
		c-0.05-0.376-0.162-0.513-0.65-0.447l-0.128,0.017l0.071-0.948l2.711-0.368l0.323,0.898L121.386,8.933L121.386,8.933z"/>
	<path fill="#FFFFFF" d="M127.882,6.046c-1.102-0.088-1.676,0.476-1.818,2.231c-0.142,1.754,0.339,2.405,1.436,2.494
		c1.125,0.091,1.683-0.478,1.822-2.231C129.463,6.785,129.003,6.137,127.882,6.046L127.882,6.046z M127.396,12.057
		c-2.136-0.173-3.556-1.28-3.338-3.941c0.212-2.661,1.794-3.527,3.93-3.354c2.166,0.174,3.565,1.279,3.349,3.941
		C131.125,11.363,129.563,12.231,127.396,12.057L127.396,12.057z"/>
	<path fill="#FFFFFF" d="M139.115,9.003c0.045-0.487-0.025-0.746-0.748-0.944l-0.666-0.182l-1.162,4.263
		c-0.101,0.377-0.056,0.545,0.391,0.667l-0.431,0.849l-2.536-0.692l0.046-0.954c0.454,0.124,0.586,0.004,0.688-0.372l1.165-4.263
		l-0.672-0.182c-0.717-0.197-0.909-0.011-1.116,0.435l-0.69-0.346l0.65-1.647l6.116,1.672l-0.263,1.753L139.115,9.003L139.115,9.003
		z"/>
	<path fill="#FFFFFF" d="M146.525,18.07l-2.339-1.189l0.237-0.924c0.426,0.215,0.576,0.123,0.749-0.227l0.722-1.415l-2.39-1.215
		l-0.718,1.415c-0.177,0.349-0.166,0.522,0.242,0.732l-0.596,0.742l-2.337-1.192l0.241-0.924c0.419,0.215,0.57,0.124,0.742-0.225
		l1.884-3.692c0.184-0.359,0.162-0.523-0.258-0.737l0.606-0.738l2.339,1.192l-0.248,0.918c-0.409-0.208-0.554-0.127-0.737,0.231
		l-0.581,1.139l2.39,1.216l0.581-1.138c0.182-0.358,0.161-0.525-0.258-0.739l0.606-0.736l2.338,1.192l-0.252,0.917
		c-0.409-0.207-0.551-0.126-0.731,0.232l-1.886,3.691c-0.177,0.35-0.16,0.524,0.249,0.731L146.525,18.07L146.525,18.07z"/>
	<path fill="#FFFFFF" d="M154.839,16.959c-0.849-0.702-1.646-0.568-2.763,0.79c-1.121,1.36-1.102,2.167-0.248,2.868
		c0.869,0.717,1.647,0.568,2.769-0.792C155.713,18.466,155.708,17.673,154.839,16.959L154.839,16.959z M151.011,21.613
		c-1.652-1.361-2.192-3.083-0.494-5.143c1.696-2.061,3.489-1.868,5.141-0.508c1.682,1.381,2.198,3.09,0.5,5.151
		C154.461,23.174,152.688,22.995,151.011,21.613L151.011,21.613z"/>
	<path fill="#FFFFFF" d="M160.112,24.505l0.53,0.662c0.445,0.548,0.914,0.581,1.313,0.258c0.398-0.318,0.47-0.744,0.015-1.308
		l-0.545-0.672L160.112,24.505L160.112,24.505z M159.224,25.22l-1.596,1.283l0.637,0.79c0.485,0.6,1.034,0.643,1.52,0.253
		c0.475-0.382,0.535-0.964,0.04-1.583L159.224,25.22L159.224,25.22z M157.543,28.123l-2.178-2.706l0.595-0.745
		c0.289,0.357,0.47,0.344,0.778,0.099l3.223-2.597c0.312-0.251,0.354-0.421,0.065-0.779l0.858-0.422l2.036,2.527
		c1.097,1.362,1.222,2.529,0.257,3.309c-0.449,0.361-1.182,0.372-1.722,0.1c0.338,0.881,0.065,1.661-0.546,2.152
		C159.881,29.889,158.632,29.475,157.543,28.123L157.543,28.123z"/>
	<path fill="#FFFFFF" d="M168.497,35.453l-2.93,1.495c-1.334,0.681-2.732,0.013-3.616-1.72c-0.89-1.741-0.615-3.278,0.717-3.958
		l2.935-1.495c0.358-0.183,0.431-0.338,0.223-0.749l0.924-0.239l1.232,2.408l-0.741,0.597c-0.213-0.409-0.38-0.438-0.738-0.255
		l-2.945,1.5c-0.58,0.298-0.777,0.876-0.379,1.655c0.404,0.798,0.995,0.99,1.576,0.692l2.945-1.501
		c0.358-0.182,0.434-0.338,0.227-0.738l0.921-0.25l1.125,2.205l-0.737,0.607C169.027,35.299,168.856,35.271,168.497,35.453
		L168.497,35.453z"/>
	<path fill="#FFFFFF" d="M171.093,42.137l-0.268-1.024l-1.969,0.521l0.262,0.99c0.197,0.745,0.677,1.034,1.279,0.875
		C170.997,43.34,171.291,42.87,171.093,42.137L171.093,42.137z M166.214,47.176l-0.535-2.036c0.702-1.257,2.661-1.002,2.294-2.393
		l-0.219-0.822l-1.312,0.346c-0.38,0.1-0.495,0.227-0.38,0.671l-0.95,0.051l-0.671-2.537l0.85-0.438
		c0.12,0.456,0.286,0.506,0.666,0.407l4-1.06c0.378-0.1,0.494-0.237,0.378-0.683l0.956-0.038l0.918,3.472
		c0.445,1.679,0.016,2.853-1.261,3.189c-0.835,0.221-1.531-0.072-2.081-0.842c-0.007,0.918-0.739,1.338-1.193,1.563
		c-0.525,0.26-0.688,0.42-0.546,0.943l0.04,0.155L166.214,47.176L166.214,47.176z"/>
	<path fill="#FFFFFF" d="M169.604,55.886c-0.024-0.484-0.176-0.58-0.556-0.56l-0.551,0.028c-0.369,0.018-0.459,0.102-0.448,0.343
		l-0.891-0.141c-0.121-1.018-0.545-1.228-0.621-2.78c-0.104-2.08,0.823-3.888,3.46-4.018c2.43-0.12,3.732,1.394,3.849,3.658
		c0.065,1.356-0.414,2.359-0.635,2.785l-1.606-0.325l-0.031-0.62c0.737-0.244,1.005-0.88,0.97-1.615
		c-0.066-1.298-0.834-1.951-2.455-1.872c-1.63,0.081-2.313,0.712-2.253,1.988c0.016,0.311,0.128,0.697,0.253,0.91l0.874-0.043
		c0.38-0.019,0.524-0.117,0.5-0.612l-0.005-0.126l0.94,0.149l0.135,2.735l-0.924,0.243L169.604,55.886L169.604,55.886z"/>
	<path fill="#FFFFFF" d="M165.765,63.875l0.829-5.425l0.948-0.066c-0.07,0.455,0.065,0.581,0.45,0.639l4.098,0.626
		c0.398,0.061,0.549-0.021,0.619-0.476l0.89,0.345l-0.793,5.188l-1.667-0.255l-0.041-0.751c0.556,0.004,0.702-0.125,0.824-0.909
		l0.187-1.206l-1.697-0.259l-0.167,1.092c-0.07,0.466-0.015,0.649,0.349,0.705l-0.298,0.723l-1.672-0.255l-0.081-0.78
		c0.379,0.058,0.48-0.101,0.556-0.567l0.162-1.092l-1.839-0.282l-0.258,1.673c-0.11,0.727,0.077,0.895,0.562,1.062l-0.265,0.739
		L165.765,63.875L165.765,63.875z"/>
	<path fill="#FFFFFF" d="M168.062,74.63l-5.272-1.989l0.499-1.324l4.783-1.369c0.328-0.097,0.909-0.162,0.909-0.162
		s-0.54-0.142-0.771-0.23l-2.329-0.876c-0.364-0.139-0.536-0.106-0.697,0.324l-0.809-0.513l0.804-2.12l0.944,0.136
		c-0.162,0.43-0.061,0.579,0.31,0.717l3.872,1.462c0.374,0.143,0.546,0.093,0.707-0.337l0.799,0.521l-0.723,1.907l-4.343,1.25
		c-0.345,0.093-0.931,0.154-0.931,0.154s0.546,0.146,0.813,0.245l1.985,0.749c0.373,0.143,0.54,0.092,0.702-0.337l0.803,0.512
		l-0.803,2.132l-0.939-0.146C168.537,74.906,168.441,74.772,168.062,74.63L168.062,74.63z"/>
	<path fill="#FFFFFF" d="M160.031,77.249c0.744-1.178,1.662-1.792,2.106-2.044l1.086,1.149l-0.344,0.544
		c-0.818-0.216-1.5,0.305-1.894,0.928c-0.304,0.478-0.39,1.114,0.116,1.435c0.434,0.275,0.838,0.067,1.636-0.803
		c0.799-0.899,1.899-1.606,3.111-0.837c1.188,0.749,1.192,2.233,0.339,3.585c-0.65,1.031-1.444,1.66-1.864,1.914l-1.02-1.095
		l0.333-0.534c0.737,0.107,1.313-0.371,1.616-0.858c0.339-0.536,0.339-1.068-0.061-1.32c-0.394-0.246-0.776-0.017-1.369,0.634
		c-1.075,1.185-2.086,1.88-3.419,1.038C159.102,80.162,159.193,78.573,160.031,77.249L160.031,77.249z"/>
	<path fill="#FFFFFF" d="M155.011,83.934l1.763-1.976l0.823,0.472c-0.302,0.344-0.263,0.521,0.031,0.78l3.096,2.753
		c0.299,0.268,0.47,0.283,0.777-0.061l0.567,0.763l-1.765,1.979l-0.823-0.472c0.309-0.345,0.268-0.514-0.03-0.782l-3.091-2.751
		c-0.298-0.261-0.475-0.283-0.783,0.061L155.011,83.934L155.011,83.934z"/>
	<path fill="#FFFFFF" d="M150.611,87.809c1.086-0.871,2.158-1.154,2.656-1.244l0.652,1.437l-0.504,0.403
		c-0.698-0.47-1.517-0.201-2.093,0.261c-0.439,0.352-0.73,0.926-0.354,1.393c0.318,0.404,0.768,0.338,1.809-0.227
		c1.047-0.588,2.313-0.899,3.218,0.225c0.873,1.096,0.394,2.498-0.854,3.5c-0.949,0.763-1.903,1.096-2.384,1.2l-0.611-1.366
		l0.495-0.399c0.657,0.344,1.358,0.079,1.804-0.283c0.494-0.394,0.666-0.899,0.373-1.268c-0.287-0.359-0.732-0.271-1.5,0.154
		c-1.404,0.771-2.586,1.099-3.57-0.131C148.783,90.259,149.389,88.788,150.611,87.809L150.611,87.809z"/>
	<path fill="#FFFFFF" d="M112.445,103.396l-3.531-1.01l0.074-0.96l0.452,0.131c0.463,0.132,0.614,0.03,0.723-0.343l1.026-3.597
		c-0.251,0.131-0.677,0.189-1.396,0.065l0.298-1.038c0.771,0.027,1.238-0.053,2.028-0.773l1.439,0.412l-1.561,5.455
		c-0.108,0.374-0.013,0.546,0.439,0.675l0.455,0.129L112.445,103.396L112.445,103.396z"/>
	<path fill="#FFFFFF" d="M119.769,98.315c-0.64-0.061-1.091,0.165-1.134,0.611c-0.043,0.457,0.346,0.854,0.962,1.2
		c0.646-0.23,1.104-0.543,1.148-1.003C120.786,98.679,120.376,98.373,119.769,98.315L119.769,98.315z M119.491,101.26
		c-0.791,0.283-1.371,0.68-1.424,1.263c-0.049,0.516,0.452,0.947,1.211,1.016c0.732,0.07,1.327-0.243,1.376-0.758
		C120.71,102.185,120.201,101.685,119.491,101.26L119.491,101.26z M119.175,104.606c-1.947-0.185-3.11-1.081-2.999-2.261
		c0.096-1.021,0.963-1.516,1.907-1.818c-0.768-0.444-1.412-0.99-1.335-1.803c0.096-1.041,1.308-1.644,3.119-1.475
		c1.731,0.164,2.859,0.987,2.756,2.028c-0.076,0.813-0.798,1.229-1.631,1.522c0.864,0.476,1.628,1.124,1.53,2.142
		C122.412,104.121,121.063,104.78,119.175,104.606L119.175,104.606z"/>
	<path fill="#FFFFFF" d="M128.125,98.383c-0.854,0.083-1.289,0.689-1.207,1.563c0.08,0.81,0.564,1.308,1.379,1.227
		c0.743-0.068,1.388-0.596,1.297-1.535C129.533,99.022,129.129,98.287,128.125,98.383L128.125,98.383z M128.099,104.629
		c-0.468,0.043-1.368-0.03-1.676-0.22l-0.097-1.01c0.345,0.093,0.844,0.139,1.293,0.096c1.259-0.121,1.985-0.755,2.142-2.011
		c-0.228,0.382-0.889,0.745-1.586,0.813c-1.732,0.164-2.813-0.747-2.948-2.189c-0.142-1.478,0.923-2.647,2.786-2.824
		c2.167-0.207,3.299,1.094,3.48,2.959C131.705,102.478,130.73,104.374,128.099,104.629L128.099,104.629z"/>
	<path fill="#FFFFFF" d="M139.222,102.394l-3.552,0.938l-0.423-0.861l0.454-0.121c0.464-0.124,0.54-0.286,0.439-0.664l-0.955-3.617
		c-0.151,0.243-0.479,0.51-1.162,0.773l-0.277-1.045c0.677-0.369,1.035-0.677,1.349-1.702l1.449-0.379l1.445,5.482
		c0.102,0.377,0.268,0.478,0.729,0.356l0.453-0.121L139.222,102.394L139.222,102.394z"/>
	<path fill="#FFFFFF" d="M105.314,56.662c-0.616-0.345-0.211-1.952,0.683-2.088c0.626-0.099,2.86-0.324,3.599,0
		c0.571,0.247,1.025,1.717,0.705,2.071C109.692,57.319,106.194,57.149,105.314,56.662L105.314,56.662z M98.1,52.521
		c-0.059-0.736,1.074-1.708,1.835-1.549c0.61,0.129,2.589,2.208,2.676,2.677c0.16,0.858-0.66,1.689-1.237,1.732
		C100.485,55.446,98.166,53.326,98.1,52.521L98.1,52.521z M98.777,48.496c-0.432,0.516-1.571,0.8-2.04,0.428
		c-0.703-0.565-0.917-2.87-0.461-3.851c0.31-0.662,2.104-0.998,2.404-0.244C98.883,45.349,99.1,48.113,98.777,48.496L98.777,48.496z
		 M99.479,41.999c-0.777,0.389-1.912-0.341-1.99-1.298c-0.081-0.96,2.273-3.19,3.091-2.965c0.4,0.109,1.108,1.038,1.045,1.715
		C101.58,39.923,99.935,41.772,99.479,41.999L99.479,41.999z M111.49,50.545c-0.812-0.351-3.122-3.415-2.372-4.165
		c0.702-0.706,3.911-2.35,4.387-1.907C115.339,46.179,113.083,51.24,111.49,50.545L111.49,50.545z M102.56,49.775
		c-0.002-0.714,2.991-2.611,4.08-2.205c0.878,0.326,2.492,4.061,1.648,4.447C106.267,52.942,102.56,51.096,102.56,49.775
		L102.56,49.775z M103.414,41.13c0.561-0.086,2.301,2.919,1.962,3.978c-0.286,0.896-3.72,2.349-4.06,2.009
		C100.281,46.083,100.802,41.531,103.414,41.13L103.414,41.13z M112.061,41.931c0,0.882-3.288,2.599-3.902,2.238
		c-0.895-0.529-2.838-3.483-2.457-3.954C107.027,38.572,112.061,40.547,112.061,41.931L112.061,41.931z M109.183,35.877
		c0.193,0.414,0.428,1.098-0.006,1.576c-0.361,0.399-3.71,0.688-4.196,0.657c-1.032-0.068-1.42-1.299-1.082-1.829
		C104.517,35.32,108.827,35.107,109.183,35.877L109.183,35.877z M116.487,40.17c-0.11,0.571-1.111,0.907-1.521,0.86
		c-0.501-0.057-2.771-1.828-2.907-2.412c-0.181-0.764,0.4-1.332,0.892-1.454C114.273,36.834,116.638,39.353,116.487,40.17
		L116.487,40.17z M118.169,48c-0.484,0.322-1.464,0.287-1.85-0.298c-0.265-0.399-0.374-3.49-0.197-3.93
		c0.183-0.455,1.351-0.773,1.914-0.462C118.68,43.664,118.956,47.477,118.169,48L118.169,48z M115.032,50.775
		c0.499-0.046,1.542,0.204,1.814,0.891c0.3,0.747-1.851,3.096-2.805,3.369c-0.587,0.168-1.583-0.914-1.422-1.783
		C112.723,52.689,114.624,50.811,115.032,50.775L115.032,50.775z M120.292,44.373c-0.341-4.125-4.32-9.622-9.94-10.554
		c-6.104-1.013-14.973,1.586-15.999,10.554c-1.063,9.279,5.563,15.633,14.092,14.978C117.698,58.642,120.776,50.209,120.292,44.373
		L120.292,44.373z"/>
	<path fill="#FFFFFF" d="M16.468,144.647c0-7.748,5.238-12.313,12.135-12.313c2.619,0,4.14,0.427,5.485,0.818l1.167-1.028h0.53
		l0.248,7.748h-0.743c-1.768-4.74-4.281-6.084-6.899-6.084c-4.105,0-8.102,3.076-8.102,10.504c0,5.806,2.902,11.074,8.918,11.074
		c1.733,0,3.607-0.495,3.607-1.059c0-1.204,0.037-4.425-0.072-7.146l-0.142-0.145l-3.467-0.177v-1.199h9.909v1.199l-2.55,0.177
		l-0.141,0.145c-0.071,2.263-0.107,4.809-0.071,7.533c-0.424,0.884-3.82,2.263-7.395,2.263
		C21.671,156.957,16.468,152.467,16.468,144.647L16.468,144.647z"/>
	<path fill="#FFFFFF" d="M55.492,128.265c0-1.129,0.707-2.015,1.909-2.015c1.131,0,1.841,0.745,1.841,1.876
		c0,1.134-0.745,2.016-1.947,2.016C56.199,130.142,55.492,129.399,55.492,128.265L55.492,128.265z M48.873,128.265
		c0-1.129,0.711-2.015,1.912-2.015c1.134,0,1.838,0.745,1.838,1.876c0,1.134-0.74,2.016-1.946,2.016
		C49.584,130.142,48.873,129.399,48.873,128.265L48.873,128.265z M61.399,144.647c0-7.146-2.796-10.721-7.289-10.721
		c-4.493,0-7.358,3.574-7.358,10.721c0,7.146,2.794,10.719,7.287,10.719C58.533,155.366,61.399,151.793,61.399,144.647
		L61.399,144.647z M42.93,145.002c0-8.031,4.92-12.668,11.181-12.668c7.041,0,11.109,4.957,11.109,11.958
		c0,8.033-4.918,12.665-11.18,12.665C47,156.957,42.93,152.007,42.93,145.002L42.93,145.002z"/>
	<path fill="#FFFFFF" d="M72.579,155.401l3.784-0.174l0.142-0.142c0.035-1.311,0.108-5.874,0.108-10.65c0-4.775,0-8.703-0.108-9.94
		l-0.109-0.177h-4.206c-0.742,0-1.626,1.273-3.077,5.554h-0.706l0.282-7.748h0.635l1.026,0.601h15.885l1.025-0.601h0.637
		l0.284,7.748h-0.708c-1.485-4.315-2.333-5.554-3.076-5.554h-4.211l-0.107,0.177c-0.034,0.849-0.106,5.625-0.106,10.4
		c0,4.778,0.072,8.915,0.106,10.19l0.141,0.142l3.892,0.174v1.207H72.579V155.401L72.579,155.401z"/>
	<path fill="#FFFFFF" d="M92.422,155.401l3.47-0.174l0.142-0.142c0.035-1.627,0.106-5.874,0.106-10.65
		c0-4.775-0.071-8.773-0.106-10.188l-0.142-0.142l-3.47-0.18v-1.202h15.532l1.382-0.601h0.533l0.249,7.748h-0.711
		c-1.275-3.573-2.407-5.344-3.004-5.377l-6.688-0.355l-0.109,0.179c-0.033,1.624-0.104,5.38-0.104,9.34
		c1.594,0,5.059-0.106,5.978-0.177l0.141-0.142l1.273-2.478h0.673c-0.036,0.99-0.069,2.513-0.069,3.468
		c0,0.919,0.033,2.898,0.069,3.962h-0.673l-1.273-2.937l-0.141-0.142c-1.096-0.035-4.246-0.104-5.978-0.104
		c0,4.492,0.071,8.099,0.104,9.902l0.109,0.177l7.218-0.387c0.599-0.038,2.189-1.49,3.466-5.662h0.814
		c-0.462,6.897-0.568,7.468-1.167,7.468H92.422V155.401L92.422,155.401z"/>
	<path fill="#FFFFFF" d="M131.66,149.815c0-3.361-2.304-4.673-5.415-4.673h-3.712c-0.035,4.493,0.071,8.066,0.107,9.943l0.175,0.142
		c0.672,0.038,1.309,0.038,1.732,0.038C129.326,155.266,131.66,153.28,131.66,149.815L131.66,149.815z M124.76,143.587
		c4.173,0,5.239-1.982,5.239-4.707c0-1.874-0.673-3.288-2.127-4.033c-0.92-0.493-2.227-0.775-4.172-0.775
		c-0.176,0-0.564,0-0.918,0.035l-0.142,0.175c-0.037,1.841-0.143,5.306-0.107,9.306H124.76L124.76,143.587z M115.455,155.401
		l3.469-0.174l0.14-0.142c0.036-1.24,0.107-5.874,0.107-10.65c0-4.775-0.072-8.632-0.107-10.188l-0.14-0.142l-3.469-0.18v-1.202
		c2.619,0,5.628-0.07,7.714-0.07c2.581,0,4.567,0.215,6.157,0.71c2.793,0.884,4.49,2.687,4.49,5.271
		c0,3.041-2.015,4.847-4.312,5.412v0.07c3.747,0.175,5.975,2.372,5.975,5.235c0,4.812-4.313,7.324-11.178,7.324
		c-2.298,0-6.013-0.068-8.846-0.068V155.401L115.455,155.401z"/>
	<path fill="#FFFFFF" d="M158.9,144.647c0-7.146-2.794-10.721-7.289-10.721c-4.489,0-7.359,3.574-7.359,10.721
		c0,7.146,2.799,10.719,7.289,10.719S158.9,151.793,158.9,144.647L158.9,144.647z M140.434,145.002
		c0-8.031,4.914-12.668,11.178-12.668c7.041,0,11.107,4.957,11.107,11.958c0,8.033-4.915,12.665-11.178,12.665
		C144.5,156.957,140.434,152.007,140.434,145.002L140.434,145.002z"/>
	<path fill="#FFFFFF" d="M181.438,138.88c0-1.944-0.849-3.395-2.444-4.137c-0.884-0.425-1.979-0.672-4.208-0.672h-1.165
		l-0.107,0.104c-0.035,1.522-0.071,6.157-0.111,10.296C179.559,144.292,181.438,142.314,181.438,138.88L181.438,138.88z
		 M166.261,155.401l3.534-0.174l0.146-0.142c0.03-1.028,0.101-5.874,0.101-10.65c0-4.775-0.07-8.597-0.101-10.188l-0.146-0.142
		l-3.534-0.18v-1.202c3.181,0,6.58-0.07,8.383-0.07c2.794,0,4.42,0.177,5.733,0.568c3.395,1.025,4.881,3.218,4.881,5.624
		c0,3.501-2.371,5.165-5.275,6.084v0.071c0.921,1.062,2.516,3.962,4.566,7.571c0.884,1.558,1.732,2.722,2.899,2.793l0.777,0.035
		v1.207h-5.303l-0.142-0.144c-1.313-2.654-2.232-4.812-4.46-8.776c-0.46-0.811-0.884-1.482-1.415-2.086
		c-1.271,0.18-2.475,0.247-3.505,0.247c-0.029,4.213,0.076,8.173,0.111,9.236l0.142,0.142l3.252,0.174v1.207h-10.646V155.401
		L166.261,155.401z"/>
	<path fill="#FFFFFF" d="M190.883,144.647c0-7.748,5.232-12.313,12.133-12.313c2.621,0,4.142,0.427,5.485,0.818l1.167-1.028h0.53
		l0.247,7.748h-0.742c-1.769-4.74-4.283-6.084-6.9-6.084c-4.106,0-8.102,3.076-8.102,10.504c0,5.806,2.899,11.074,8.916,11.074
		c1.736,0,3.61-0.495,3.61-1.059c0-1.204,0.036-4.425-0.07-7.146l-0.146-0.145l-3.461-0.177v-1.199h9.9v1.199l-2.546,0.177
		l-0.142,0.145c-0.07,2.263-0.106,4.809-0.07,7.533c-0.425,0.884-3.819,2.263-7.396,2.263
		C196.08,156.957,190.883,152.467,190.883,144.647L190.883,144.647z"/>
	<path fill="#FFFFFF" d="M217.163,149.141h0.819c1.236,4.493,3.253,6.369,5.727,6.369c2.904,0,4.743-1.947,4.743-4.492
		c0-6.157-10.859-4.602-10.859-12.383c0-3.291,2.581-6.301,7.071-6.301c2.305,0,4.142,0.709,4.53,0.818l1.062-1.028h0.671
		l0.213,7.748h-0.743c-1.484-4.315-3.428-6.084-5.839-6.084c-2.086,0-3.889,1.379-3.889,3.713c0,5.909,11.041,4.987,11.041,12.453
		c0,3.573-2.692,7.003-8.212,7.003c-1.521,0-3.324-0.349-4.88-1.379l-0.707,1.379h-0.748V149.141L217.163,149.141z"/>
	<path fill="#FFFFFF" d="M3.574,189.781c0-1.344,0.034-2.154,0.034-5.657c0-2.796-0.034-5.025-0.071-8.208l-0.14-0.142L0,175.596
		v-1.202h10.12v1.202l-2.867,0.179l-0.141,0.142c-0.034,2.652-0.068,8.382-0.068,13.727c0,4.455,1.024,7.465,5.73,7.465
		c4.916,0,6.33-2.866,6.33-8.137c0-4.602-0.069-9.587-0.14-13.055l-0.142-0.142l-3.255-0.179v-1.202h9.376v1.202l-3.466,0.179
		l-0.141,0.142c-0.106,3.786-0.106,8.983-0.071,13.373c0.033,6.084-2.833,9.339-8.773,9.339
		C6.653,198.628,3.574,195.62,3.574,189.781L3.574,189.781z"/>
	<path fill="#FFFFFF" d="M28.125,197.072l3.469-0.177l0.14-0.142c0.107-3.788,0.107-6.581,0.107-10.119
		c0-3.539,0-5.483-0.107-10.719l-0.14-0.142l-3.469-0.179v-1.202h6.761c4.315,6.048,9.233,13.122,12.771,18.184h0.07
		c-0.07-6.791-0.141-13.193-0.212-16.661l-0.14-0.142l-3.255-0.179v-1.202h9.376v1.202l-3.469,0.179l-0.14,0.142
		c-0.106,3.786-0.106,6.579-0.106,15.459v7.076h-1.735c-4.387-6.226-9.625-13.552-14.081-19.919h-0.069
		c0.036,8.281,0.142,14.681,0.212,18.222l0.139,0.142l3.259,0.177v1.202h-9.38V197.072L28.125,197.072z"/>
	<path fill="#FFFFFF" d="M57.739,197.072l3.465-0.177l0.144-0.142c0.07-1.099,0.104-5.874,0.104-10.65
		c0-4.775-0.034-8.985-0.104-10.188l-0.144-0.142l-3.465-0.179v-1.202h10.756v1.202l-3.433,0.179l-0.142,0.142
		c-0.071,0.955-0.106,5.872-0.106,10.647c0,4.776,0.07,8.988,0.106,10.19l0.142,0.142l3.433,0.177v1.202H57.739V197.072
		L57.739,197.072z"/>
	<path fill="#FFFFFF" d="M73.624,175.701l-2.124-0.105v-1.202h9.27v1.202l-3.149,0.141l-0.144,0.142
		c1.986,5.13,4.319,11.324,6.655,17.3h0.072c1.731-4.811,4.739-13.37,5.907-17.335l-0.107-0.106l-2.864-0.141v-1.202h7.818v1.202
		l-2.055,0.105c-1.838,4.673-6.084,15.674-8.88,22.927h-0.955C79.424,189.781,76.277,182.07,73.624,175.701L73.624,175.701z"/>
	<path fill="#FFFFFF" d="M97.605,197.072l3.47-0.177l0.142-0.142c0.035-1.629,0.106-5.874,0.106-10.65
		c0-4.775-0.071-8.773-0.106-10.188l-0.142-0.142l-3.47-0.179v-1.202h15.534l1.381-0.602h0.53l0.248,7.748h-0.709
		c-1.275-3.573-2.403-5.341-3.004-5.379l-6.689-0.354l-0.106,0.177c-0.036,1.629-0.106,5.379-0.106,9.339
		c1.594,0,5.059-0.104,5.978-0.177l0.142-0.139l1.273-2.478h0.674c-0.034,0.99-0.07,2.511-0.07,3.465
		c0,0.922,0.037,2.904,0.07,3.965h-0.674l-1.273-2.937l-0.142-0.142c-1.096-0.038-4.245-0.106-5.978-0.106
		c0,4.496,0.071,8.104,0.106,9.908l0.106,0.174l7.218-0.389c0.603-0.033,2.19-1.485,3.466-5.66h0.814
		c-0.458,6.897-0.568,7.466-1.167,7.466H97.605V197.072L97.605,197.072z"/>
	<path fill="#FFFFFF" d="M135.818,180.551c0-1.947-0.85-3.399-2.441-4.143c-0.888-0.424-1.984-0.672-4.212-0.672h-1.167
		l-0.106,0.106c-0.035,1.521-0.07,6.157-0.105,10.299C133.944,185.963,135.818,183.98,135.818,180.551L135.818,180.551z
		 M120.639,197.072l3.536-0.177l0.148-0.142c0.034-1.025,0.1-5.874,0.1-10.65c0-4.775-0.065-8.599-0.1-10.188l-0.148-0.142
		l-3.536-0.179v-1.202c3.187,0,6.581-0.071,8.385-0.071c2.793,0,4.426,0.177,5.732,0.566c3.395,1.027,4.88,3.22,4.88,5.626
		c0,3.501-2.369,5.165-5.269,6.084v0.071c0.919,1.062,2.511,3.962,4.562,7.571c0.884,1.556,1.738,2.725,2.898,2.793l0.783,0.038
		v1.202h-5.309l-0.142-0.144c-1.308-2.652-2.228-4.809-4.455-8.774c-0.459-0.811-0.889-1.482-1.419-2.086
		c-1.272,0.177-2.474,0.245-3.5,0.245c-0.036,4.213,0.07,8.175,0.105,9.238l0.142,0.142l3.253,0.177v1.202h-10.647V197.072
		L120.639,197.072z"/>
	<path fill="#FFFFFF" d="M146.5,190.809h0.812c1.238,4.493,3.253,6.37,5.733,6.37c2.899,0,4.737-1.947,4.737-4.496
		c0-6.151-10.859-4.596-10.859-12.382c0-3.289,2.581-6.297,7.076-6.297c2.299,0,4.143,0.708,4.526,0.813l1.061-1.025h0.672
		l0.217,7.748h-0.742c-1.49-4.315-3.435-6.086-5.839-6.086c-2.086,0-3.895,1.379-3.895,3.712c0,5.91,11.042,4.991,11.042,12.456
		c0,3.571-2.691,7.006-8.208,7.006c-1.52,0-3.329-0.354-4.885-1.379l-0.707,1.379H146.5V190.809L146.5,190.809z"/>
	<path fill="#FFFFFF" d="M166.168,197.072l3.471-0.177l0.141-0.142c0.071-1.099,0.106-5.874,0.106-10.65
		c0-4.775-0.035-8.985-0.106-10.188l-0.141-0.142l-3.471-0.179v-1.202h10.76v1.202l-3.436,0.179l-0.142,0.142
		c-0.07,0.955-0.105,5.872-0.105,10.647c0,4.776,0.075,8.988,0.105,10.19l0.142,0.142l3.436,0.177v1.202h-10.76V197.072
		L166.168,197.072z"/>
	<path fill="#FFFFFF" d="M185.347,197.072l3.783-0.177l0.142-0.142c0.037-1.311,0.106-5.874,0.106-10.65
		c0-4.775,0-8.705-0.106-9.942l-0.105-0.177h-4.208c-0.746,0-1.63,1.275-3.081,5.556h-0.707l0.284-7.748h0.635l1.025,0.602H199
		l1.025-0.602h0.636l0.284,7.748h-0.708c-1.485-4.315-2.334-5.556-3.076-5.556h-4.211l-0.107,0.177
		c-0.035,0.851-0.106,5.627-0.106,10.402c0,4.776,0.071,8.915,0.106,10.19l0.142,0.142l3.895,0.177v1.202h-11.532V197.072
		L185.347,197.072z"/>
	<path fill="#FFFFFF" d="M205.192,197.072l3.465-0.177l0.142-0.142c0.035-1.629,0.111-5.874,0.111-10.65
		c0-4.775-0.076-8.773-0.111-10.188l-0.142-0.142l-3.465-0.179v-1.202h15.532l1.379-0.602h0.53l0.247,7.748h-0.707
		c-1.271-3.573-2.403-5.341-3.006-5.379l-6.688-0.354l-0.105,0.177c-0.035,1.629-0.106,5.379-0.106,9.339
		c1.591,0,5.057-0.104,5.976-0.177l0.147-0.139l1.267-2.478h0.673c-0.031,0.99-0.065,2.511-0.065,3.465
		c0,0.922,0.034,2.904,0.065,3.965h-0.673l-1.267-2.937l-0.147-0.142c-1.096-0.038-4.243-0.106-5.976-0.106
		c0,4.496,0.071,8.104,0.106,9.908l0.105,0.174l7.219-0.389c0.601-0.033,2.191-1.485,3.466-5.66h0.812
		c-0.459,6.897-0.565,7.466-1.166,7.466h-17.618V197.072L205.192,197.072z"/>
	<path fill="#FFFFFF" d="M232.396,197.072l3.785-0.177l0.14-0.142c0.036-1.311,0.106-5.874,0.106-10.65c0-4.775,0-8.705-0.106-9.942
		l-0.101-0.177h-4.213c-0.742,0-1.626,1.275-3.081,5.556h-0.707l0.283-7.748h0.643l1.019,0.602h15.886l1.03-0.602h0.637L248,181.54
		h-0.708c-1.484-4.315-2.338-5.556-3.075-5.556h-4.213l-0.106,0.177c-0.035,0.851-0.105,5.627-0.105,10.402
		c0,4.776,0.07,8.915,0.105,10.19l0.142,0.142l3.895,0.177v1.202h-11.537V197.072L232.396,197.072z"/>
</g>
</svg>
