<?xml version="1.0" encoding="utf-8"?>
<!-- Generator: Adobe Illustrator 16.0.4, SVG Export Plug-In . SVG Version: 6.00 Build 0)  -->
<!DOCTYPE svg PUBLIC "-//W3C//DTD SVG 1.1//EN" "http://www.w3.org/Graphics/SVG/1.1/DTD/svg11.dtd">
<svg version="1.1" id="Lager_1" xmlns="http://www.w3.org/2000/svg" xmlns:xlink="http://www.w3.org/1999/xlink" x="0px" y="0px"
	 width="266.814px" height="198.628px" viewBox="0 0 266.814 198.628" enable-background="new 0 0 266.814 198.628"
	 xml:space="preserve">
<g>
	<g>
		<defs>
			<rect id="SVGID_1_" width="266.814" height="198.628"/>
		</defs>
		<clipPath id="SVGID_2_">
			<use xlink:href="#SVGID_1_"  overflow="visible"/>
		</clipPath>
		<path clip-path="url(#SVGID_2_)" fill="#FFFFFF" d="M132.597,92.972c-20.816-0.449-37.384-17.754-36.934-38.573
			c0.219-10.086,4.351-19.482,11.636-26.458c7.288-6.978,16.853-10.698,26.935-10.48c20.821,0.45,37.389,17.757,36.937,38.575
			c-0.217,10.085-4.349,19.483-11.637,26.459C152.248,89.469,142.683,93.192,132.597,92.972L132.597,92.972z M105.149,25.696
			c-7.885,7.552-12.356,17.719-12.591,28.635c-0.491,22.531,17.445,41.261,39.975,41.751c10.914,0.235,21.265-3.792,29.151-11.343
			c7.888-7.552,12.359-17.721,12.597-28.638c0.485-22.531-17.445-41.261-39.978-41.746
			C123.389,14.119,113.037,18.146,105.149,25.696L105.149,25.696z"/>
		<path clip-path="url(#SVGID_2_)" fill="#FFFFFF" d="M132.277,107.923c-29.064-0.628-52.196-24.784-51.563-53.85
			c0.301-14.076,6.069-27.193,16.243-36.93c10.168-9.742,23.525-14.937,37.604-14.631c14.074,0.304,27.192,6.073,36.934,16.245
			c9.739,10.168,14.933,23.524,14.629,37.601l0,0C185.492,85.422,161.336,108.554,132.277,107.923L132.277,107.923z M95.229,15.336
			C84.575,25.539,78.536,39.276,78.214,54.019c-0.659,30.443,23.566,55.746,54.007,56.404c30.438,0.659,55.741-23.571,56.397-54.012
			l0,0c0.321-14.743-5.12-28.731-15.318-39.384C163.093,6.375,149.357,0.332,134.614,0.013
			C119.87-0.308,105.882,5.133,95.229,15.336L95.229,15.336z"/>
	</g>
	<path fill="#FFFFFF" d="M144.404,88.052c-20.5,3.677-36.927-4.3-39.932-14.142c-1.943-6.366,0.881-7.749,1.33-12.343
		c-3.549,1.891-4.206-3.033-1.07-3.454c3.317-0.447,4.801,3.037,3.189,7.672c-2.321,6.66,1.754,9.752,2.898,9.408
		c0.048-0.349,0.467-1.197,0.666-1.574c-2.788-3.564-1.624-8.764,3.136-9.188c1.938-0.173,1.747,1.237,0.398,1.434
		c-3.649,0.528-3.475,4.604-1.956,5.122c0.266,0,0.577-0.071,0.848-0.341c-0.064-0.83,0.51-2.012,1.456-1.777
		c2.104,0.53,1.299,3.21-0.143,3.427c-0.542,1.65-1.578,3.949-1.354,5.142c0.22,1.19,1.055,1.426,1.742,0.739
		c0.508-0.507,0.75-1.738,1.077-3.069c-0.345-1.505,0.388-2.648,1.663-2.106c0.883,0.375,0.983,1.734,0.112,2.787
		c-0.112,1.293-0.677,2.759-0.554,3.75c0.125,0.994,1.479,0.927,1.969,0.386c0.488-0.536,0.993-4.041,1.19-4.811
		c-0.761-0.672-0.459-2.74,1.101-2.863c1.833-0.147,1.412,2.351,0.891,2.981c0.516,1.95-0.322,4.148,0.051,5.019
		c0.375,0.871,1.805,1.077,2.451,0.368c0.644-0.718-0.168-2.22,0.192-3.976c-0.618-1.517,0.1-2.732,1.003-2.804
		c2.048-0.165,1.465,1.682,1.087,2.978c0.105,1.325,0.33,2.911,0.792,4.131c0.296,0.794,1.608,0.976,2.045-0.046
		c0.273-0.636-0.35-2.444-0.498-3.72c-0.886-2.065-0.135-2.628,0.659-2.693c0.753-0.062,1.777,0.361,1.642,2.4
		c0.414,1.374,0.769,3.035,1.279,4.115c0.229,0.863,1.287,0.953,1.622,0.056c0.324-0.894-0.291-1.948-0.953-3.388
		c-1.468-1.426-0.132-2.525,0.705-2.595c0.835-0.066,2.143,0.16,1.867,2.383c0.454,1.348,0.753,2.579,1.052,3.296
		c0.347,0.825,1.496,0.922,1.986,0.383c0.493-0.546-0.449-1.496-0.694-2.666c-1.108-1.076-0.906-2.548,0.354-2.649
		c0.649-0.05,1.913,0.021,1.793,1.911c0.373,0.817,0.378,1.856,0.925,2.745c0.658,1.083,1.683,0.674,2.091-0.299
		c0.401-0.98-2.138-3.817-0.153-3.977c1.986-0.156,2.334,2.445,2.978,3.071c0.641,0.618,1.137,0.207,1.44-0.13
		c0.521-0.575-0.863-2.135,0.102-2.578c1.949-0.894,1.913,1.332,3.297,1.354c6.037,0.095,10.786-9.814,10.081-12.609
		c-2.02-1.199-1.31-4.189,0.381-4.222c4.159-0.074,3.572,5.803,0.419,12.628C158.918,82.664,148.745,87.271,144.404,88.052
		L144.404,88.052z"/>
	<path fill="#FFFFFF" d="M149.779,39.314c-0.672,0.645-2.789,0.782-3.874,0.149c-0.896-0.527-1.103-4.466-0.651-5.531
		c0.452-1.066,5.084-1.109,5.449-0.378C151.071,34.288,150.45,38.669,149.779,39.314L149.779,39.314z M141.485,34.443
		c0.148,0.562,0.699,3.046,0.827,4.54c0.071,0.557-0.128,1.233-0.462,1.361c-0.833,0.318-2.214,0.242-2.968-0.047
		c-0.824-0.317-0.265-3.604-3.296-4.193c0.416-0.292,0.636-0.6,0.72-1.322c0.054-0.474,0.636-0.983,1.351-1.07
		c1.387-0.156,2.253-0.197,2.717-0.18C140.839,33.548,141.337,33.869,141.485,34.443L141.485,34.443z M135.622,50.768
		c-1.769-0.04-2.428-11.08-0.6-11.043C136.659,39.76,136.841,50.79,135.622,50.768L135.622,50.768z M153.195,40.961
		c-0.068-0.025-0.084-0.142-0.068-0.191c0.93-3.581,1.608-5.155,1.948-8.723c0.082-0.853-0.528-1.544-1.096-1.686
		c-2.203-0.55-3.223-0.531-4.075-0.596c-0.092-0.006-0.294-0.047-0.357-0.17c-0.253-0.518-0.631-2.077-0.636-2.868
		c1.289-2.731-1.012-3.674-3.18-3.64c-1.422-0.069-2.875,0.586-3.043,1.654c-0.194,2.066,2.088,2.822,2.905,2.896
		c0.138,0.293,0.473,1.735,0.528,2.307c0.006,0.075-0.063,0.158-0.163,0.158c-3.664,0.069-8.409,0.71-10.816,0.895
		c-0.345,0.054-0.511-0.147-0.582-0.346c-0.447-1.234-2.357-7.062,1.226-6.949c2.124,0.068,3.901-1.671,1.884-2.994
		c-0.518-0.341-3.232-0.674-4.701-0.418c-1.218,0.21-1.808,1.584-1.655,2.786c0.24,1.883-4.451,2.076-5.837,1.516
		c-0.991-0.401-2.209-1.581-2.633-2.34c-0.901-1.61-2.462-0.382-2.176,0.481c1.943,5.86,8.143,4.93,9.765,5.011
		c0.079,0.004,0.22,0.11,0.228,0.154c0.396,2.116,1.657,4.349,1.652,5.173c-0.771,0.857-0.442,2.693,0.646,3.008
		c-1.33,1.277-1.928,5.736-1.713,9.435c0.271,4.716,2.176,9.29,5.173,8.797c3.81-0.624,2.312-9.439,3.235-10.193
		c0.465-0.373,1.703-0.268,2.155-0.215c0.104,0.013,0.158,0.13,0.153,0.187c-0.302,3.46-1.124,9.01-1.325,10.489
		c-0.207,1.508-0.332,2.289,0.432,3.682c0.84,1.535,2.369,6.413,0.579,11.576c-0.054,0.202-0.222,0.267-0.28,0.281
		c-1.617,0.371-2.479,0.875-3.067,1.274c-0.638,0.434-1.322,1.337-0.855,1.882c0.677,0.618,5.03,0.377,6.371-1.633
		c0.033-0.048,0.125-0.24,0.141-0.281c0.465-1.297,1.047-2.244,1.483-3.075c2.008-3.83,2.301-8.536-0.452-10.662
		c-0.771-0.594-1.562-1.163-0.809-2.653c1.455-2.883,1.608-6.031,1.792-8.692c0.074-1.07,1.854-1.683,2.525-0.673
		c1.668,3.952,0.357,7.355,0.332,8.758c-0.033,1.405,0.498,2.056,0.68,2.896c1.136,5.149,0.564,9.319-0.465,14.634
		c-0.006,0.112-0.095,0.191-0.199,0.226c-1.208,0.405-1.948,0.656-2.704,1.185c-0.767,0.535-1.065,1.219-0.733,1.595
		c1.012,1.142,5.585-0.097,5.93-1.406c0.857-3.258,7.02-10.809,2.732-15.633c-1.956-2.201-1.956-1.317-1.977-2.428
		c-0.011-0.534,1.226-3.455,1.534-5.715c0.327-2.353-1.21-4.591-0.827-5.891c0.011-0.04,0.107-0.103,0.148-0.095
		c0.638,0.123,2.147,0.526,3.123,1.082c0.301,0.17,0.824,0.036,0.898-1.13C157.052,42.416,153.837,41.192,153.195,40.961
		L153.195,40.961z"/>
	<path fill="#FFFFFF" d="M114.5,57.096c-0.624-0.348-0.138-1.599,0.766-1.738c0.636-0.097,2.786-0.356,3.534-0.031
		c0.577,0.25,0.983,1.463,0.659,1.819C118.841,57.83,115.394,57.592,114.5,57.096L114.5,57.096z M107.309,53.115
		c-0.059-0.746,0.947-1.587,1.718-1.425c0.618,0.132,2.533,2.151,2.623,2.625c0.164,0.87-0.531,1.557-1.111,1.599
		C109.638,55.979,107.38,53.928,107.309,53.115L107.309,53.115z M107.692,49.051c-0.441,0.522-1.427,0.85-1.902,0.472
		c-0.712-0.572-0.927-2.905-0.464-3.898c0.312-0.669,1.938-1.038,2.239-0.274C107.771,45.876,108.017,48.665,107.692,49.051
		L107.692,49.051z M108.246,42.427c-0.789,0.395-1.522-0.141-1.601-1.112c-0.084-0.971,2.207-3.343,3.034-3.117
		c0.403,0.11,1.011,0.88,0.945,1.564C110.58,40.241,108.706,42.197,108.246,42.427L108.246,42.427z M120.625,50.875
		c-0.82-0.357-2.949-3.161-2.191-3.921c0.71-0.715,3.703-2.23,4.183-1.782C124.474,46.899,122.237,51.577,120.625,50.875
		L120.625,50.875z M111.916,50.308c0-0.541,2.801-2.443,3.902-2.031c0.889,0.331,2.28,3.824,1.527,4.176
		C115.312,53.412,111.916,51.201,111.916,50.308L111.916,50.308z M112.613,41.782c0.398-0.083,2.265,2.808,1.923,3.878
		c-0.289,0.907-3.728,2.185-4.07,1.84C109.416,46.454,110.333,42.263,112.613,41.782L112.613,41.782z M121.067,42.544
		c0,0.894-3.113,2.382-3.733,2.017c-0.909-0.535-2.763-3.288-2.377-3.765C116.3,39.133,121.067,41.145,121.067,42.544
		L121.067,42.544z M118.394,36.449c0.194,0.42,0.429,0.979-0.01,1.464c-0.368,0.403-3.667,0.515-4.16,0.482
		c-1.044-0.07-1.527-1.134-1.183-1.67C113.667,35.753,118.031,35.669,118.394,36.449L118.394,36.449z M125.653,40.672
		c-0.107,0.576-1.057,0.799-1.471,0.752c-0.505-0.058-2.661-1.744-2.799-2.334c-0.184-0.774,0.34-1.267,0.835-1.391
		C123.56,37.364,125.809,39.843,125.653,40.672L125.653,40.672z M127.5,48.475c-0.488,0.326-1.415,0.383-1.805-0.208
		c-0.268-0.406-0.355-3.4-0.176-3.844c0.184-0.461,1.19-0.802,1.759-0.489C127.931,44.292,128.296,47.945,127.5,48.475L127.5,48.475
		z M124.303,51.465c0.508-0.046,1.46,0.069,1.739,0.765c0.301,0.755-1.788,3.12-2.755,3.396c-0.592,0.17-1.479-0.723-1.315-1.603
		C122.076,53.453,123.892,51.502,124.303,51.465L124.303,51.465z M129.867,44.767c-0.347-4.175-4.239-9.693-9.928-10.638
		c-6.177-1.024-15.778,1.451-16.817,10.528c-1.077,9.393,6.116,16.372,14.749,15.709C127.237,59.649,130.354,50.677,129.867,44.767
		L129.867,44.767z"/>
	<polygon fill="#FFFFFF" points="116.359,8.326 116.088,10.433 114.727,12.061 116.831,12.329 118.463,13.693 118.729,11.585 
		120.092,9.959 117.985,9.688 116.359,8.326 	"/>
	<polygon fill="#FFFFFF" points="155.757,99.571 154.046,98.314 151.927,98.187 153.175,96.468 153.308,94.349 155.019,95.605 
		157.139,95.735 155.885,97.451 155.757,99.571 	"/>
	<polygon fill="#FFFFFF" points="110.92,99.492 112.636,98.243 114.758,98.123 113.512,96.399 113.386,94.277 111.67,95.531 
		109.554,95.653 110.797,97.372 110.92,99.492 	"/>
	<path fill="#FFFFFF" d="M99.196,90.378l2.161-2.533c0.98-1.151,2.551-1.07,4.047,0.207c1.506,1.284,1.843,2.827,0.86,3.979
		l-2.16,2.536c-0.266,0.309-0.276,0.485,0.079,0.784l-0.771,0.585l-2.083-1.777l0.462-0.845c0.355,0.301,0.526,0.263,0.789-0.046
		l2.17-2.543c0.429-0.505,0.391-1.124-0.286-1.695c-0.692-0.59-1.315-0.542-1.744-0.036l-2.17,2.543
		c-0.263,0.309-0.273,0.485,0.072,0.779l-0.764,0.59l-1.905-1.624l0.452-0.853C98.76,90.728,98.931,90.689,99.196,90.378
		L99.196,90.378z"/>
	<path fill="#FFFFFF" d="M92.256,81.936l4.568-3.422l0.858,1.147l-1.43,4.829c-0.1,0.334-0.36,0.866-0.36,0.866
		s0.414-0.383,0.621-0.537l2.012-1.509c0.317-0.238,0.38-0.404,0.102-0.776l0.874-0.409l1.376,1.836l-0.628,0.735
		c-0.281-0.373-0.462-0.368-0.781-0.127l-3.355,2.513c-0.327,0.245-0.375,0.414-0.094,0.786l-0.881,0.398L93.9,86.617l1.292-4.392
		c0.11-0.342,0.378-0.878,0.378-0.878s-0.421,0.388-0.656,0.564l-1.713,1.284c-0.327,0.245-0.375,0.411-0.097,0.787l-0.874,0.406
		l-1.384-1.847l0.636-0.723C91.763,82.191,91.929,82.181,92.256,81.936L92.256,81.936z"/>
	<path fill="#FFFFFF" d="M94.013,73.185l1.19,2.4l-0.761,0.595c-0.204-0.417-0.388-0.443-0.743-0.269l-3.756,1.86
		c-0.365,0.182-0.444,0.336-0.24,0.755l-0.932,0.24l-1.188-2.4l0.758-0.596c0.207,0.419,0.378,0.451,0.743,0.27l3.756-1.861
		c0.355-0.175,0.444-0.336,0.237-0.753L94.013,73.185L94.013,73.185z"/>
	<path fill="#FFFFFF" d="M85.492,66.003l6.177,0.557l0.541,1.844l-4.893,3.788c-0.355,0.274-0.396,0.421-0.275,0.833l-0.963,0.066
		l-0.756-2.559l0.845-0.468c0.12,0.366,0.268,0.42,0.58,0.194l2.365-1.78c0.393-0.273,1.226-0.664,1.226-0.664
		s-0.917,0.1-1.399,0.073L85.964,67.6c-0.398-0.027-0.483,0.143-0.368,0.522l-0.963,0.078l-0.671-2.277l0.848-0.457
		C84.935,65.889,85.042,65.966,85.492,66.003L85.492,66.003z"/>
	<path fill="#FFFFFF" d="M90.06,56.331l0.503,5.534l-0.919,0.293c-0.043-0.463-0.204-0.555-0.597-0.518l-4.175,0.38
		c-0.406,0.038-0.536,0.154-0.493,0.618l-0.96-0.123l-0.483-5.288l1.706-0.156l0.22,0.729c-0.552,0.13-0.664,0.292-0.593,1.094
		l0.115,1.229l1.726-0.158l-0.102-1.113c-0.043-0.475-0.141-0.644-0.511-0.609l0.115-0.783l1.706-0.154l0.269,0.747
		c-0.383,0.034-0.45,0.216-0.406,0.692l0.102,1.113l1.879-0.171l-0.156-1.706c-0.069-0.74-0.289-0.862-0.807-0.909l0.08-0.79
		L90.06,56.331L90.06,56.331z"/>
	<path fill="#FFFFFF" d="M84.378,49.597l-0.118,1.065l2.048,0.229l0.115-1.029c0.087-0.776-0.26-1.225-0.886-1.294
		C84.912,48.497,84.465,48.833,84.378,49.597L84.378,49.597z M90.829,46.627l-0.235,2.118c-1.126,0.928-2.88-0.029-3.044,1.417
		l-0.094,0.857l1.366,0.152c0.393,0.046,0.554-0.031,0.605-0.494l0.914,0.303l-0.293,2.638l-0.96,0.104
		c0.051-0.474-0.086-0.583-0.482-0.628l-4.165-0.466c-0.396-0.043-0.557,0.043-0.608,0.507l-0.914-0.314l0.403-3.611
		c0.197-1.747,1.029-2.697,2.359-2.55c0.868,0.099,1.42,0.629,1.655,1.558c0.342-0.863,1.188-0.992,1.698-1.041
		c0.592-0.051,0.802-0.144,0.863-0.688l0.018-0.162L90.829,46.627L90.829,46.627z"/>
	<path fill="#FFFFFF" d="M92.315,42.017c-0.432,1.342-1.18,2.178-1.55,2.536l-1.353-0.852l0.199-0.622
		c0.855,0.006,1.392-0.677,1.622-1.385c0.174-0.544,0.102-1.191-0.475-1.376c-0.5-0.161-0.843,0.145-1.402,1.2
		c-0.557,1.082-1.456,2.052-2.842,1.606c-1.354-0.436-1.729-1.89-1.233-3.432c0.378-1.174,0.996-1.992,1.343-2.345l1.279,0.816
		l-0.197,0.61c-0.748,0.078-1.19,0.693-1.369,1.247c-0.194,0.61-0.059,1.131,0.398,1.278c0.442,0.143,0.766-0.182,1.177-0.967
		c0.756-1.433,1.57-2.37,3.09-1.88C92.488,38.93,92.8,40.51,92.315,42.017L92.315,42.017z"/>
	<path fill="#FFFFFF" d="M95.497,34.305l-1.223,2.384l-0.93-0.254c0.212-0.414,0.125-0.576-0.227-0.758l-3.731-1.913
		c-0.362-0.185-0.536-0.156-0.748,0.259l-0.748-0.608l1.223-2.382l0.929,0.252c-0.212,0.415-0.135,0.572,0.228,0.759l3.728,1.913
		c0.355,0.181,0.536,0.157,0.75-0.258L95.497,34.305L95.497,34.305z"/>
	<path fill="#FFFFFF" d="M95.826,24.431c-0.441-0.223-0.712-0.248-1.159,0.363l-0.414,0.564l3.605,2.643
		c0.319,0.235,0.498,0.249,0.774-0.126l0.644,0.717l-1.571,2.141l-0.886-0.388c0.283-0.387,0.217-0.55-0.103-0.785l-3.608-2.644
		l-0.414,0.564c-0.447,0.61-0.342,0.86,0.005,1.215l-0.577,0.531l-1.32-1.214l3.794-5.176l1.56,0.886L95.826,24.431L95.826,24.431z"
		/>
	<path fill="#FFFFFF" d="M100.529,19.837c-0.355-0.209-1.085-0.819-1.085-0.819s0.523,0.817,0.702,1.177l0.769,1.815l1.346-1.256
		L100.529,19.837L100.529,19.837z M106.653,21.005l-1.925,1.795l-0.789-0.554c0.255-0.239,0.278-0.402-0.092-0.597l-0.521-0.265
		l-1.872,1.748l0.22,0.544c0.168,0.401,0.36,0.35,0.631,0.096l0.498,0.825l-1.66,1.55l-0.789-0.556
		c0.306-0.286,0.354-0.44,0.179-0.85l-1.806-4.257c-0.115-0.26-0.286-0.339-0.618-0.029l-0.491-0.833l2.769-2.584l0.796,0.548
		c-0.342,0.318-0.296,0.467-0.031,0.6l4.149,2.104c0.378,0.203,0.537,0.184,0.851-0.111L106.653,21.005L106.653,21.005z"/>
	<path fill="#FFFFFF" d="M110.669,18.536c-1.198,0.742-2.308,0.896-2.822,0.928l-0.48-1.526l0.554-0.342
		c0.646,0.557,1.499,0.384,2.132-0.008c0.485-0.301,0.85-0.841,0.528-1.357c-0.276-0.444-0.735-0.434-1.843,0.008
		c-1.124,0.463-2.439,0.621-3.208-0.617c-0.748-1.208-0.092-2.56,1.285-3.413c1.049-0.65,2.048-0.874,2.541-0.918l0.447,1.45
		l-0.544,0.337c-0.62-0.424-1.356-0.241-1.851,0.065c-0.544,0.337-0.776,0.825-0.523,1.23c0.243,0.396,0.7,0.359,1.522,0.027
		c1.504-0.603,2.732-0.788,3.572,0.567C112.802,16.295,112.015,17.701,110.669,18.536L110.669,18.536z"/>
	<path fill="#FFFFFF" d="M130.83,9.041c-0.483,0.065-0.567,0.229-0.516,0.61l0.074,0.554c0.051,0.371,0.143,0.452,0.386,0.419
		l-0.064,0.913c-1.019,0.208-1.192,0.655-2.75,0.864c-2.089,0.282-3.994-0.496-4.352-3.15c-0.329-2.436,1.085-3.884,3.361-4.19
		c1.363-0.184,2.413,0.215,2.862,0.401l-0.189,1.647l-0.623,0.084c-0.309-0.723-0.973-0.938-1.711-0.839
		c-1.305,0.176-1.897,1.009-1.678,2.635c0.22,1.639,0.917,2.274,2.199,2.102c0.312-0.042,0.689-0.188,0.896-0.332l-0.12-0.877
		c-0.051-0.382-0.164-0.52-0.662-0.452l-0.125,0.017l0.069-0.961l2.748-0.37l0.325,0.909L130.83,9.041L130.83,9.041z"/>
	<path fill="#FFFFFF" d="M137.407,6.12c-1.116-0.089-1.698,0.482-1.841,2.259c-0.144,1.776,0.342,2.435,1.455,2.524
		c1.139,0.092,1.698-0.482,1.841-2.259C139.006,6.868,138.546,6.211,137.407,6.12L137.407,6.12z M136.917,12.204
		c-2.157-0.175-3.601-1.295-3.383-3.989c0.217-2.694,1.818-3.57,3.978-3.395c2.193,0.176,3.611,1.295,3.394,3.989
		C140.688,11.502,139.11,12.379,136.917,12.204L136.917,12.204z"/>
	<path fill="#FFFFFF" d="M148.778,9.112c0.051-0.493-0.023-0.754-0.756-0.954l-0.672-0.185l-1.18,4.315
		c-0.102,0.382-0.054,0.551,0.394,0.675l-0.437,0.858l-2.564-0.7l0.049-0.966c0.46,0.126,0.587,0.005,0.694-0.377l1.178-4.314
		L144.81,7.28c-0.729-0.199-0.924-0.012-1.134,0.439l-0.702-0.348l0.662-1.667l6.191,1.691L149.56,9.17L148.778,9.112L148.778,9.112
		z"/>
	<path fill="#FFFFFF" d="M156.28,18.292l-2.364-1.206l0.24-0.936c0.426,0.217,0.577,0.124,0.756-0.229l0.729-1.433l-2.418-1.231
		l-0.728,1.433c-0.182,0.352-0.166,0.528,0.248,0.742l-0.603,0.75l-2.37-1.204l0.242-0.936c0.424,0.216,0.577,0.124,0.756-0.229
		l1.905-3.736c0.184-0.363,0.163-0.531-0.263-0.747l0.617-0.746l2.365,1.204l-0.251,0.931c-0.416-0.21-0.562-0.129-0.748,0.235
		l-0.584,1.152l2.415,1.232l0.588-1.153c0.186-0.363,0.166-0.53-0.259-0.747l0.613-0.746l2.367,1.206l-0.25,0.931
		c-0.419-0.212-0.562-0.129-0.748,0.233l-1.902,3.737c-0.18,0.353-0.166,0.53,0.25,0.74L156.28,18.292L156.28,18.292z"/>
	<path fill="#FFFFFF" d="M164.696,17.166c-0.862-0.711-1.67-0.576-2.801,0.801c-1.134,1.376-1.11,2.193-0.25,2.903
		c0.883,0.725,1.672,0.574,2.804-0.802C165.58,18.693,165.578,17.89,164.696,17.166L164.696,17.166z M160.818,21.877
		c-1.673-1.376-2.214-3.119-0.496-5.207c1.716-2.086,3.532-1.89,5.204-0.512c1.698,1.398,2.222,3.127,0.506,5.212
		C164.313,23.458,162.519,23.275,160.818,21.877L160.818,21.877z"/>
	<path fill="#FFFFFF" d="M170.033,24.805l0.539,0.671c0.447,0.553,0.922,0.587,1.33,0.259c0.401-0.322,0.473-0.753,0.013-1.325
		l-0.551-0.679L170.033,24.805L170.033,24.805z M169.135,25.528l-1.614,1.301l0.642,0.798c0.49,0.608,1.049,0.651,1.537,0.257
		c0.482-0.387,0.546-0.977,0.041-1.603L169.135,25.528L169.135,25.528z M167.435,28.468l-2.207-2.74l0.603-0.754
		c0.294,0.362,0.478,0.349,0.784,0.101l3.266-2.63c0.319-0.255,0.36-0.425,0.069-0.788l0.866-0.429l2.061,2.559
		c1.11,1.379,1.238,2.56,0.26,3.349c-0.451,0.366-1.192,0.376-1.741,0.102c0.342,0.89,0.066,1.682-0.552,2.178
		C169.801,30.255,168.537,29.837,167.435,28.468L167.435,28.468z"/>
	<path fill="#FFFFFF" d="M178.521,35.887l-2.965,1.514c-1.348,0.688-2.768,0.013-3.661-1.74c-0.899-1.764-0.621-3.318,0.728-4.006
		l2.967-1.514c0.365-0.185,0.442-0.342,0.228-0.757l0.938-0.243l1.243,2.439l-0.751,0.604c-0.212-0.414-0.383-0.444-0.745-0.258
		l-2.978,1.518c-0.593,0.303-0.789,0.888-0.389,1.675c0.414,0.81,1.009,1.003,1.599,0.701l2.978-1.519
		c0.365-0.185,0.441-0.342,0.235-0.747l0.929-0.252l1.14,2.23l-0.746,0.616C179.061,35.733,178.887,35.702,178.521,35.887
		L178.521,35.887z"/>
	<path fill="#FFFFFF" d="M181.154,42.653l-0.276-1.036l-1.991,0.527l0.266,1.002c0.199,0.754,0.687,1.047,1.292,0.886
		C181.052,43.872,181.349,43.397,181.154,42.653L181.154,42.653z M176.213,47.755l-0.546-2.061c0.712-1.273,2.696-1.014,2.326-2.42
		l-0.223-0.834l-1.327,0.351c-0.384,0.101-0.506,0.23-0.386,0.681l-0.966,0.05l-0.679-2.567l0.86-0.444
		c0.122,0.462,0.294,0.513,0.677,0.412l4.053-1.072c0.383-0.101,0.503-0.241,0.383-0.691l0.965-0.038l0.93,3.512
		c0.449,1.701,0.016,2.888-1.279,3.229c-0.846,0.225-1.55-0.071-2.104-0.853c-0.007,0.93-0.75,1.356-1.207,1.584
		c-0.534,0.262-0.695,0.425-0.557,0.954l0.043,0.159L176.213,47.755L176.213,47.755z"/>
	<path fill="#FFFFFF" d="M179.643,56.571c-0.025-0.488-0.182-0.586-0.564-0.566l-0.56,0.027c-0.372,0.018-0.462,0.105-0.449,0.349
		l-0.904-0.142c-0.119-1.032-0.551-1.244-0.628-2.814c-0.104-2.105,0.83-3.936,3.506-4.068c2.454-0.121,3.779,1.411,3.892,3.703
		c0.066,1.373-0.418,2.388-0.644,2.818l-1.624-0.327l-0.03-0.628c0.746-0.248,1.017-0.89,0.98-1.634
		c-0.066-1.315-0.845-1.977-2.484-1.895c-1.652,0.081-2.344,0.721-2.28,2.012c0.016,0.314,0.128,0.706,0.255,0.92l0.884-0.043
		c0.386-0.019,0.531-0.12,0.506-0.619l-0.005-0.129l0.952,0.152l0.135,2.768l-0.932,0.245L179.643,56.571L179.643,56.571z"/>
	<path fill="#FFFFFF" d="M175.754,64.658l0.84-5.491l0.963-0.066c-0.069,0.462,0.063,0.588,0.457,0.647l4.144,0.635
		c0.404,0.062,0.557-0.021,0.626-0.482l0.901,0.351l-0.802,5.249l-1.693-0.258l-0.035-0.761c0.564,0.005,0.712-0.125,0.835-0.921
		l0.187-1.219l-1.716-0.263l-0.169,1.106c-0.071,0.472-0.018,0.658,0.353,0.714l-0.302,0.73l-1.692-0.258l-0.079-0.79
		c0.38,0.059,0.485-0.103,0.559-0.574l0.169-1.105l-1.867-0.285l-0.258,1.692c-0.109,0.736,0.074,0.908,0.567,1.076l-0.269,0.75
		L175.754,64.658L175.754,64.658z"/>
	<path fill="#FFFFFF" d="M178.085,75.547l-5.342-2.015l0.505-1.34l4.842-1.385c0.337-0.098,0.922-0.164,0.922-0.164
		s-0.544-0.143-0.784-0.233l-2.354-0.888c-0.37-0.139-0.544-0.106-0.71,0.331l-0.812-0.519l0.81-2.146l0.957,0.136
		c-0.163,0.436-0.059,0.587,0.31,0.725l3.925,1.48c0.38,0.146,0.549,0.096,0.712-0.341l0.81,0.531l-0.728,1.928l-4.397,1.267
		c-0.347,0.093-0.942,0.154-0.942,0.154s0.555,0.147,0.828,0.249l2.004,0.757c0.381,0.144,0.549,0.094,0.713-0.341l0.812,0.518
		l-0.812,2.158l-0.952-0.148C178.562,75.826,178.465,75.69,178.085,75.547L178.085,75.547z"/>
	<path fill="#FFFFFF" d="M169.952,78.196c0.753-1.191,1.683-1.814,2.132-2.068l1.101,1.162l-0.35,0.551
		c-0.827-0.218-1.517,0.308-1.915,0.938c-0.307,0.483-0.396,1.129,0.117,1.453c0.441,0.281,0.851,0.069,1.654-0.814
		c0.81-0.908,1.923-1.624,3.154-0.847c1.2,0.76,1.202,2.261,0.339,3.63c-0.661,1.044-1.463,1.68-1.887,1.936l-1.034-1.108
		l0.343-0.541c0.742,0.112,1.325-0.375,1.634-0.868c0.342-0.539,0.34-1.081-0.063-1.335c-0.394-0.248-0.789-0.016-1.385,0.643
		c-1.088,1.198-2.111,1.902-3.46,1.05C169.013,81.145,169.106,79.536,169.952,78.196L169.952,78.196z"/>
	<path fill="#FFFFFF" d="M164.87,84.964l1.78-2.002l0.837,0.478c-0.309,0.35-0.266,0.529,0.028,0.792l3.136,2.786
		c0.304,0.271,0.478,0.286,0.787-0.062l0.574,0.774l-1.78,2.002l-0.837-0.478c0.312-0.35,0.275-0.521-0.028-0.792l-3.133-2.786
		c-0.297-0.263-0.48-0.286-0.789,0.062L164.87,84.964L164.87,84.964z"/>
	<path fill="#FFFFFF" d="M160.414,88.887c1.099-0.881,2.184-1.167,2.691-1.261l0.659,1.458l-0.508,0.406
		c-0.71-0.475-1.537-0.202-2.117,0.266c-0.447,0.355-0.743,0.937-0.362,1.41c0.326,0.409,0.781,0.342,1.831-0.23
		c1.06-0.595,2.347-0.909,3.255,0.228c0.889,1.108,0.401,2.53-0.862,3.542c-0.963,0.771-1.929,1.113-2.413,1.218l-0.618-1.387
		l0.5-0.401c0.667,0.347,1.377,0.077,1.831-0.289c0.498-0.398,0.672-0.912,0.373-1.285c-0.291-0.362-0.74-0.271-1.517,0.159
		c-1.42,0.779-2.615,1.111-3.613-0.136C158.565,91.369,159.179,89.877,160.414,88.887L160.414,88.887z"/>
	<path fill="#FFFFFF" d="M121.78,104.668l-3.572-1.024l0.074-0.973l0.46,0.133c0.47,0.135,0.621,0.033,0.728-0.348l1.042-3.641
		c-0.255,0.135-0.685,0.194-1.412,0.069l0.301-1.052c0.779,0.028,1.251-0.056,2.053-0.781l1.455,0.417l-1.581,5.521
		c-0.107,0.381-0.013,0.554,0.447,0.685l0.459,0.13L121.78,104.668L121.78,104.668z"/>
	<path fill="#FFFFFF" d="M129.195,99.522c-0.651-0.061-1.106,0.166-1.146,0.618c-0.043,0.463,0.35,0.863,0.973,1.216
		c0.654-0.232,1.116-0.552,1.162-1.017C130.224,99.89,129.811,99.581,129.195,99.522L129.195,99.522z M128.914,102.502
		c-0.799,0.289-1.386,0.689-1.442,1.279c-0.049,0.523,0.459,0.955,1.223,1.029c0.743,0.069,1.346-0.248,1.396-0.771
		C130.147,103.437,129.632,102.934,128.914,102.502L128.914,102.502z M128.595,105.888c-1.971-0.184-3.151-1.09-3.039-2.285
		c0.097-1.031,0.975-1.534,1.93-1.844c-0.776-0.446-1.427-0.998-1.351-1.823c0.1-1.055,1.328-1.665,3.161-1.492
		c1.749,0.164,2.888,0.996,2.789,2.054c-0.077,0.822-0.807,1.246-1.655,1.539c0.878,0.48,1.647,1.137,1.55,2.171
		C131.869,105.4,130.508,106.069,128.595,105.888L128.595,105.888z"/>
	<path fill="#FFFFFF" d="M137.649,99.591c-0.857,0.082-1.302,0.7-1.218,1.581c0.082,0.822,0.572,1.325,1.397,1.246
		c0.753-0.071,1.404-0.603,1.312-1.556C139.082,100.237,138.671,99.494,137.649,99.591L137.649,99.591z M137.627,105.911
		c-0.475,0.046-1.384-0.028-1.695-0.223l-0.1-1.021c0.35,0.097,0.855,0.14,1.31,0.097c1.274-0.123,2.007-0.767,2.168-2.033
		c-0.232,0.386-0.898,0.754-1.606,0.822c-1.751,0.166-2.847-0.758-2.984-2.219c-0.146-1.494,0.935-2.676,2.824-2.854
		c2.19-0.212,3.335,1.103,3.519,2.995C141.278,103.735,140.293,105.655,137.627,105.911L137.627,105.911z"/>
	<path fill="#FFFFFF" d="M148.886,103.651l-3.591,0.947l-0.437-0.873l0.462-0.12c0.473-0.125,0.55-0.291,0.45-0.675l-0.968-3.659
		c-0.151,0.245-0.491,0.513-1.178,0.782l-0.28-1.06c0.684-0.373,1.049-0.685,1.365-1.721l1.464-0.386l1.466,5.552
		c0.102,0.383,0.272,0.482,0.732,0.359l0.462-0.122L148.886,103.651L148.886,103.651z"/>
	<path fill="#FFFFFF" d="M3.412,149.646c0-1.287,0.033-2.063,0.033-5.408c0-2.666-0.033-4.796-0.069-7.836l-0.133-0.135L0,136.099
		v-1.149h9.66v1.149l-2.737,0.169l-0.136,0.135c-0.033,2.534-0.066,8.004-0.066,13.106c0,4.254,0.981,7.129,5.473,7.129
		c4.696,0,6.046-2.737,6.046-7.768c0-4.392-0.066-9.157-0.135-12.468l-0.135-0.135l-3.108-0.169v-1.149h8.953v1.149l-3.312,0.169
		l-0.133,0.135c-0.102,3.617-0.102,8.581-0.069,12.77c0.033,5.812-2.702,8.916-8.378,8.916
		C6.351,158.088,3.412,155.218,3.412,149.646L3.412,149.646z"/>
	<path fill="#FFFFFF" d="M26.687,156.603l3.312-0.169l0.135-0.133c0.1-3.615,0.1-6.287,0.1-9.662c0-3.376,0-5.235-0.1-10.236
		l-0.135-0.135l-3.312-0.169v-1.149h6.453c4.121,5.775,8.817,12.532,12.195,17.363h0.066c-0.066-6.486-0.135-12.6-0.202-15.91
		l-0.135-0.135l-3.107-0.169v-1.149h8.95v1.149l-3.31,0.169l-0.135,0.135c-0.102,3.617-0.102,6.283-0.102,14.761v6.757h-1.655
		c-4.188-5.944-9.188-12.937-13.444-19.019h-0.066c0.033,7.905,0.133,14.019,0.202,17.399l0.135,0.133l3.108,0.169v1.148h-8.953
		V156.603L26.687,156.603z"/>
	<path fill="#FFFFFF" d="M53.782,156.603l3.31-0.169l0.135-0.133c0.066-1.047,0.102-5.607,0.102-10.168s-0.036-8.58-0.102-9.73
		l-0.135-0.135l-3.31-0.169v-1.149H64.05v1.149l-3.276,0.169l-0.135,0.135c-0.066,0.91-0.103,5.609-0.103,10.17
		s0.069,8.579,0.103,9.729l0.135,0.133l3.276,0.169v1.148H53.782V156.603L53.782,156.603z"/>
	<path fill="#FFFFFF" d="M68.444,136.201l-2.03-0.103v-1.149h8.853v1.149l-3.008,0.136l-0.135,0.135
		c1.892,4.896,4.122,10.811,6.354,16.521h0.066c1.654-4.597,4.524-12.773,5.641-16.554l-0.1-0.102l-2.737-0.136v-1.149h7.466v1.149
		l-1.961,0.103c-1.756,4.457-5.809,14.962-8.478,21.887h-0.914C73.983,149.646,70.975,142.282,68.444,136.201L68.444,136.201z"/>
	<path fill="#FFFFFF" d="M91.179,156.603l3.312-0.169l0.136-0.133c0.033-1.558,0.099-5.607,0.099-10.168s-0.066-8.381-0.099-9.73
		l-0.136-0.135l-3.312-0.169v-1.149h14.831l1.318-0.574h0.505l0.237,7.396h-0.676c-1.216-3.412-2.296-5.097-2.871-5.133
		l-6.386-0.338l-0.1,0.17c-0.033,1.552-0.102,5.132-0.102,8.916c1.52,0,4.831-0.102,5.709-0.168l0.136-0.133l1.215-2.364h0.641
		c-0.033,0.944-0.066,2.395-0.066,3.309c0,0.879,0.033,2.769,0.066,3.784h-0.641l-1.215-2.804l-0.136-0.138
		c-1.047-0.03-4.055-0.102-5.709-0.102c0,4.295,0.069,7.736,0.102,9.458l0.1,0.174l6.892-0.373c0.575-0.036,2.094-1.42,3.312-5.408
		h0.776c-0.439,6.588-0.542,7.129-1.116,7.129H91.179V156.603L91.179,156.603z"/>
	<path fill="#FFFFFF" d="M127.495,140.826c0-1.854-0.81-3.242-2.332-3.952c-0.843-0.403-1.89-0.64-4.019-0.64h-1.113l-0.102,0.102
		c-0.033,1.452-0.069,5.88-0.103,9.827C125.705,145.995,127.495,144.105,127.495,140.826L127.495,140.826z M113.003,156.603
		l3.378-0.169l0.135-0.133c0.033-0.98,0.102-5.607,0.102-10.168s-0.069-8.207-0.102-9.73l-0.135-0.135l-3.378-0.169v-1.149
		c3.041,0,6.284-0.066,8.005-0.066c2.668,0,4.224,0.169,5.472,0.542c3.243,0.978,4.663,3.073,4.663,5.371
		c0,3.34-2.263,4.929-5.033,5.807v0.071c0.878,1.012,2.398,3.779,4.356,7.227c0.845,1.486,1.657,2.6,2.771,2.671l0.743,0.031v1.148
		h-5.066l-0.135-0.133c-1.251-2.538-2.129-4.596-4.256-8.38c-0.439-0.776-0.845-1.415-1.351-1.992
		c-1.215,0.169-2.365,0.235-3.345,0.235c-0.033,4.019,0.069,7.803,0.103,8.819l0.135,0.133l3.107,0.169v1.148h-10.168V156.603
		L113.003,156.603z"/>
	<path fill="#FFFFFF" d="M138.204,150.622h0.778c1.183,4.29,3.108,6.082,5.473,6.082c2.768,0,4.524-1.858,4.524-4.29
		c0-5.878-10.369-4.392-10.369-11.822c0-3.141,2.467-6.013,6.756-6.013c2.196,0,3.953,0.677,4.323,0.776l1.014-0.98h0.642
		l0.204,7.396h-0.71c-1.42-4.116-3.276-5.809-5.574-5.809c-1.992,0-3.716,1.319-3.716,3.546c0,5.644,10.539,4.765,10.539,11.895
		c0,3.411-2.566,6.685-7.835,6.685c-1.455,0-3.176-0.337-4.662-1.317l-0.677,1.317h-0.71V150.622L138.204,150.622z"/>
	<path fill="#FFFFFF" d="M156.482,156.603l3.312-0.169l0.133-0.133c0.069-1.047,0.103-5.607,0.103-10.168s-0.033-8.58-0.103-9.73
		l-0.133-0.135l-3.312-0.169v-1.149h10.27v1.149l-3.278,0.169l-0.133,0.135c-0.069,0.91-0.103,5.609-0.103,10.17
		s0.066,8.579,0.103,9.729l0.133,0.133l3.278,0.169v1.148h-10.27V156.603L156.482,156.603z"/>
	<path fill="#FFFFFF" d="M174.285,156.603l3.613-0.169l0.136-0.133c0.035-1.251,0.102-5.607,0.102-10.168s0-8.31-0.102-9.494
		l-0.1-0.168h-4.022c-0.707,0-1.552,1.215-2.937,5.301h-0.677l0.271-7.396h0.608l0.98,0.574h15.165l0.98-0.574h0.608l0.271,7.396
		h-0.677c-1.417-4.116-2.229-5.301-2.939-5.301h-4.019l-0.103,0.168c-0.033,0.812-0.1,5.373-0.1,9.934s0.066,8.508,0.1,9.729
		l0.136,0.133l3.718,0.169v1.148h-11.014V156.603L174.285,156.603z"/>
	<path fill="#FFFFFF" d="M198.304,156.603l3.345-0.169l0.136-0.133c0.068-2.538,0.102-4.091,0.102-8.718
		c-2.804-4.254-5.878-9.151-7.397-11.382l-2.265-0.103v-1.149h8.615v1.149l-2.434,0.136l-0.133,0.135
		c1.652,2.772,3.984,6.653,5.776,9.427h0.066c1.859-3.279,4.02-7.268,5.103-9.46l-0.103-0.102l-2.364-0.136v-1.149h7.295v1.149
		l-2.061,0.103c-1.959,2.868-4.525,7.398-6.89,11.28c0,4.662,0.066,5.775,0.1,8.819l0.136,0.133l3.444,0.169v1.148h-10.472V156.603
		L198.304,156.603z"/>
	<path fill="#FFFFFF" d="M242.321,146.332c0-6.823-2.669-10.233-6.959-10.233c-4.289,0-7.024,3.41-7.024,10.233
		c0,6.828,2.669,10.239,6.958,10.239C239.586,156.571,242.321,153.16,242.321,146.332L242.321,146.332z M224.689,146.674
		c0-7.671,4.695-12.095,10.673-12.095c6.724,0,10.607,4.73,10.607,11.416c0,7.671-4.695,12.093-10.674,12.093
		C228.573,158.088,224.689,153.359,224.689,146.674L224.689,146.674z"/>
	<path fill="#FFFFFF" d="M249.859,156.603l3.309-0.199l0.136-0.139c0.033-1.185,0.103-5.571,0.103-10.132s-0.069-8.549-0.103-9.73
		l-0.136-0.135l-3.309-0.169v-1.149h14.896l1.315-0.574h0.507l0.236,7.396h-0.676c-1.215-3.412-2.298-5.133-2.87-5.163l-6.451-0.308
		l-0.103,0.17c-0.033,0.98-0.102,5.132-0.102,8.916c1.52,0,4.831-0.102,5.644-0.168l0.136-0.133l1.213-2.364h0.644
		c-0.034,0.944-0.068,2.395-0.068,3.309c0,0.879,0.034,3.009,0.068,4.02h-0.644l-1.284-3.039l-0.133-0.138
		c-0.981-0.03-3.918-0.102-5.575-0.102c0,4.295,0,8.109,0.102,9.493l0.136,0.139l3.648,0.199v1.148h-10.64V156.603L249.859,156.603z
		"/>
	<path fill="#FFFFFF" d="M11.013,186.871c0-7.395,4.998-11.751,11.585-11.751c2.5,0,3.953,0.403,5.235,0.776l1.116-0.98h0.506
		l0.237,7.395h-0.71c-1.688-4.524-4.088-5.807-6.585-5.807c-3.919,0-7.737,2.937-7.737,10.03c0,5.541,2.771,10.577,8.514,10.577
		c1.655,0,3.445-0.476,3.445-1.017c0-1.149,0.033-4.224-0.066-6.823l-0.136-0.133l-3.312-0.173v-1.145h9.458v1.145l-2.431,0.173
		l-0.136,0.133c-0.066,2.16-0.102,4.597-0.066,7.196c-0.406,0.843-3.649,2.16-7.061,2.16
		C15.978,198.628,11.013,194.338,11.013,186.871L11.013,186.871z"/>
	<path fill="#FFFFFF" d="M54.423,186.871c0-6.822-2.671-10.234-6.961-10.234c-4.29,0-7.025,3.412-7.025,10.234
		c0,6.828,2.668,10.24,6.958,10.24C51.686,197.111,54.423,193.699,54.423,186.871L54.423,186.871z M36.789,187.214
		c0-7.671,4.696-12.094,10.674-12.094c6.723,0,10.607,4.729,10.607,11.414c0,7.671-4.696,12.094-10.673,12.094
		C40.672,198.628,36.789,193.898,36.789,187.214L36.789,187.214z"/>
	<path fill="#FFFFFF" d="M66.619,197.142l3.613-0.168l0.138-0.133c0.033-1.252,0.1-5.608,0.1-10.169s0-8.309-0.1-9.493l-0.103-0.169
		h-4.021c-0.708,0-1.553,1.216-2.937,5.301h-0.677l0.271-7.395h0.608l0.98,0.572h15.166l0.98-0.572h0.607l0.271,7.395h-0.674
		c-1.42-4.116-2.232-5.301-2.939-5.301h-4.022l-0.1,0.169c-0.036,0.812-0.102,5.372-0.102,9.933s0.066,8.514,0.102,9.729
		l0.135,0.133l3.713,0.168v1.149H66.619V197.142L66.619,197.142z"/>
	<path fill="#FFFFFF" d="M85.065,197.142l3.309-0.168l0.136-0.133c0.033-1.287,0.102-5.608,0.102-10.169s-0.069-8.682-0.102-9.729
		l-0.136-0.138l-3.309-0.169v-1.148h9.795v1.148l-2.804,0.169l-0.135,0.138c-0.066,1.047-0.1,5.03-0.1,8.814h11.179
		c0.033-4.188-0.069-8.038-0.102-8.814l-0.135-0.138l-2.804-0.169v-1.148h9.798v1.148l-3.312,0.169l-0.133,0.138
		c-0.036,1.012-0.102,5.607-0.102,10.168s0.066,8.243,0.102,9.729l0.133,0.133l3.312,0.168v1.149H99.96v-1.149l2.804-0.168
		l0.135-0.133c0.033-1.149,0.102-5.337,0.102-9.326H91.822c0,4.29,0.033,7.4,0.1,9.326l0.135,0.133l2.804,0.168v1.149h-9.795
		V197.142L85.065,197.142z"/>
	<path fill="#FFFFFF" d="M112.63,197.142l3.312-0.168l0.133-0.133c0.036-1.558,0.102-5.608,0.102-10.169s-0.066-8.38-0.102-9.729
		l-0.133-0.138l-3.312-0.169v-1.148h14.831l1.317-0.572h0.506l0.235,7.395h-0.674c-1.215-3.411-2.298-5.097-2.87-5.132l-6.386-0.337
		l-0.1,0.168c-0.036,1.553-0.102,5.133-0.102,8.917c1.519,0,4.831-0.103,5.709-0.169l0.136-0.133l1.215-2.364h0.641
		c-0.033,0.945-0.069,2.396-0.069,3.31c0,0.878,0.036,2.768,0.069,3.784h-0.641l-1.215-2.804l-0.136-0.138
		c-1.047-0.031-4.055-0.098-5.709-0.098c0,4.285,0.066,7.732,0.102,9.453l0.1,0.174l6.892-0.373
		c0.574-0.035,2.094-1.419,3.309-5.408h0.779c-0.439,6.589-0.541,7.13-1.116,7.13H112.63V197.142L112.63,197.142z"/>
	<path fill="#FFFFFF" d="M134.455,197.142l3.31-0.168l0.136-0.133c0.102-3.616,0.102-6.282,0.102-9.663
		c0-3.376,0-5.234-0.102-10.234l-0.136-0.138l-3.31-0.169v-1.148h6.45c4.124,5.775,8.817,12.532,12.196,17.363h0.068
		c-0.068-6.485-0.135-12.599-0.204-15.908l-0.135-0.138l-3.108-0.169v-1.148h8.953v1.148l-3.312,0.169l-0.133,0.138
		c-0.102,3.616-0.102,6.281-0.102,14.76v6.756h-1.655c-4.189-5.944-9.189-12.936-13.443-19.019h-0.069
		c0.033,7.906,0.136,14.02,0.201,17.4l0.136,0.133l3.107,0.168v1.149h-8.95V197.142L134.455,197.142z"/>
	<path fill="#FFFFFF" d="M177.021,191.805c0-3.207-2.196-4.458-5.169-4.458h-3.547c-0.033,4.29,0.069,7.701,0.103,9.494l0.168,0.133
		c0.642,0.035,1.249,0.035,1.655,0.035C174.791,197.009,177.021,195.114,177.021,191.805L177.021,191.805z M170.435,185.86
		c3.983,0,5-1.89,5-4.494c0-1.787-0.644-3.141-2.027-3.851c-0.879-0.47-2.13-0.74-3.986-0.74c-0.171,0-0.541,0-0.879,0.03
		l-0.135,0.169c-0.033,1.756-0.136,5.065-0.103,8.886H170.435L170.435,185.86z M161.548,197.142l3.312-0.168l0.135-0.133
		c0.033-1.186,0.1-5.608,0.1-10.169s-0.066-8.242-0.1-9.729l-0.135-0.138l-3.312-0.169v-1.148c2.5,0,5.373-0.066,7.365-0.066
		c2.466,0,4.358,0.204,5.878,0.679c2.668,0.843,4.29,2.563,4.29,5.03c0,2.906-1.926,4.627-4.122,5.169v0.066
		c3.583,0.168,5.71,2.262,5.71,4.999c0,4.597-4.121,6.992-10.674,6.992c-2.196,0-5.742-0.066-8.447-0.066V197.142L161.548,197.142z"
		/>
	<path fill="#FFFFFF" d="M187.967,190.186c0-1.286,0.033-2.062,0.033-5.408c0-2.666-0.033-4.795-0.066-7.834l-0.135-0.138
		l-3.243-0.169v-1.148h9.662v1.148l-2.737,0.169l-0.136,0.138c-0.033,2.533-0.068,8.003-0.068,13.104c0,4.26,0.98,7.13,5.475,7.13
		c4.693,0,6.047-2.737,6.047-7.768c0-4.393-0.069-9.157-0.136-12.467l-0.135-0.138l-3.108-0.169v-1.148h8.95v1.148l-3.309,0.169
		l-0.136,0.138c-0.103,3.616-0.103,8.58-0.066,12.768c0.033,5.812-2.704,8.917-8.378,8.917
		C190.906,198.628,187.967,195.758,187.967,190.186L187.967,190.186z"/>
	<path fill="#FFFFFF" d="M225.736,181.366c0-1.854-0.812-3.243-2.332-3.948c-0.845-0.408-1.892-0.643-4.019-0.643h-1.116
		l-0.103,0.102c-0.033,1.45-0.066,5.878-0.1,9.826C223.946,186.534,225.736,184.645,225.736,181.366L225.736,181.366z
		 M211.242,197.142l3.378-0.168l0.136-0.133c0.036-0.98,0.103-5.608,0.103-10.169s-0.066-8.212-0.103-9.729l-0.136-0.138
		l-3.378-0.169v-1.148c3.041,0,6.284-0.066,8.008-0.066c2.669,0,4.221,0.168,5.473,0.541c3.242,0.98,4.662,3.074,4.662,5.373
		c0,3.345-2.265,4.928-5.035,5.807v0.071c0.878,1.011,2.397,3.779,4.358,7.227c0.846,1.486,1.655,2.6,2.771,2.671l0.743,0.03v1.149
		h-5.068l-0.136-0.133c-1.248-2.533-2.127-4.597-4.257-8.381c-0.437-0.776-0.842-1.42-1.351-1.991
		c-1.216,0.168-2.364,0.234-3.343,0.234c-0.033,4.02,0.066,7.804,0.1,8.82l0.136,0.133l3.107,0.168v1.149h-10.168V197.142
		L211.242,197.142z"/>
	<path fill="#FFFFFF" d="M235.601,186.871c0-7.395,4.999-11.751,11.588-11.751c2.499,0,3.952,0.403,5.234,0.776l1.116-0.98h0.505
		l0.238,7.395h-0.71c-1.69-4.524-4.086-5.807-6.586-5.807c-3.92,0-7.737,2.937-7.737,10.03c0,5.541,2.771,10.577,8.514,10.577
		c1.654,0,3.444-0.476,3.444-1.017c0-1.149,0.033-4.224-0.066-6.823l-0.135-0.133l-3.312-0.173v-1.145h9.458v1.145l-2.431,0.173
		l-0.135,0.133c-0.066,2.16-0.103,4.597-0.066,7.196c-0.406,0.843-3.649,2.16-7.061,2.16
		C240.566,198.628,235.601,194.338,235.601,186.871L235.601,186.871z"/>
</g>
</svg>
